<?xml version="1.0" encoding="UTF-8"?>
<!DOCTYPE svg PUBLIC "-//W3C//DTD SVG 1.1//EN" "http://www.w3.org/Graphics/SVG/1.1/DTD/svg11.dtd">
<svg xmlns="http://www.w3.org/2000/svg" style="background: transparent; background-color: transparent; color-scheme: light dark;" xmlns:xlink="http://www.w3.org/1999/xlink" version="1.1" width="69px" height="60px" viewBox="0 0 69 60"><defs/><g><g data-cell-id="0"><g data-cell-id="1"><g data-cell-id="zUf-twn3w12nEgAwtcUJ-1"/><g data-cell-id="zUf-twn3w12nEgAwtcUJ-2"/><g data-cell-id="zUf-twn3w12nEgAwtcUJ-3"/><g data-cell-id="zUf-twn3w12nEgAwtcUJ-5"><g><rect x="0.65" y="0.85" width="66" height="58" fill="none" stroke="none" pointer-events="all"/><path d="M 0.65 58.85 L 0.65 7.71 L 59.66 7.71 L 59.66 58.85 Z M 7.09 0.85 L 0.65 7.71 L 59.66 7.71 L 66.65 0.85 Z M 66.65 52 L 66.65 0.85 L 59.66 7.71 L 59.66 58.85 Z" fill="#036897" stroke="#ffffff" stroke-width="2" stroke-linejoin="round" stroke-miterlimit="10" pointer-events="all" style="fill: light-dark(rgb(3, 104, 151), rgb(92, 179, 220)); stroke: light-dark(rgb(255, 255, 255), rgb(18, 18, 18));"/><rect x="0.65" y="0.85" width="0" height="0" fill="none" stroke="#ffffff" stroke-width="2" pointer-events="all" style="stroke: light-dark(rgb(255, 255, 255), rgb(18, 18, 18));"/><path d="M 54.83 12.46 L 6.01 12.46 L 6.01 54.63 L 54.83 54.63 Z" fill="none" stroke="#ffffff" stroke-width="2" stroke-miterlimit="10" pointer-events="all" style="stroke: light-dark(rgb(255, 255, 255), rgb(18, 18, 18));"/><path d="M 52.16 27.74 C 52.16 32.48 42.5 36.18 30.69 36.18 C 18.89 36.18 9.23 32.48 9.23 27.74 C 9.23 39.87 9.23 39.87 9.23 39.87 C 9.23 44.61 18.89 48.3 30.69 48.3 C 42.5 48.3 52.16 44.61 52.16 39.87 Z" fill="#036897" stroke="#ffffff" stroke-width="2" stroke-linejoin="round" stroke-miterlimit="10" pointer-events="all" style="fill: light-dark(rgb(3, 104, 151), rgb(92, 179, 220)); stroke: light-dark(rgb(255, 255, 255), rgb(18, 18, 18));"/><path d="M 30.69 36.18 C 42.5 36.18 52.16 32.48 52.16 27.74 C 52.16 23.53 42.5 19.83 30.69 19.83 C 18.89 19.83 9.23 23.53 9.23 27.74 C 9.23 32.48 18.89 36.18 30.69 36.18 Z" fill="#036897" stroke="#ffffff" stroke-width="2" stroke-linejoin="round" stroke-miterlimit="10" pointer-events="all" style="fill: light-dark(rgb(3, 104, 151), rgb(92, 179, 220)); stroke: light-dark(rgb(255, 255, 255), rgb(18, 18, 18));"/><path d="M 25.86 24.58 L 27.47 27.22 L 21.03 28.8 L 22.11 27.74 L 11.92 26.16 L 14.59 24.05 L 24.25 25.63 Z M 34.99 30.9 L 33.91 28.28 L 39.82 27.22 L 38.74 28.28 L 48.94 29.86 L 46.79 31.96 L 36.6 29.86 Z M 31.77 23.53 L 38.74 21.41 L 38.74 24.58 L 37.13 24.05 L 33.91 26.69 L 30.69 26.16 L 33.91 23.53 Z M 29.08 33.54 L 22.64 34.6 L 22.11 31.96 L 24.25 31.96 L 27.47 29.32 L 30.69 29.86 L 26.94 33.02 Z" fill="#ffffff" stroke="none" pointer-events="all" style="fill: light-dark(rgb(255, 255, 255), rgb(18, 18, 18));"/></g></g></g></g></g></svg>