<?xml version="1.0" encoding="UTF-8"?>
<!DOCTYPE svg PUBLIC "-//W3C//DTD SVG 1.1//EN" "http://www.w3.org/Graphics/SVG/1.1/DTD/svg11.dtd">
<svg xmlns="http://www.w3.org/2000/svg" style="background: transparent; background-color: transparent; color-scheme: light dark;" xmlns:xlink="http://www.w3.org/1999/xlink" version="1.1" width="106px" height="56px" viewBox="0 0 106 56"><defs/><g><g data-cell-id="0"><g data-cell-id="1"><g data-cell-id="Mdee9xLFCV9MJBnmo9In-98"/><g data-cell-id="Mdee9xLFCV9MJBnmo9In-99"/><g data-cell-id="Mdee9xLFCV9MJBnmo9In-100"/><g data-cell-id="Mdee9xLFCV9MJBnmo9In-101"/><g data-cell-id="Mdee9xLFCV9MJBnmo9In-102"/><g data-cell-id="Mdee9xLFCV9MJBnmo9In-103"/><g data-cell-id="Mdee9xLFCV9MJBnmo9In-104"/><g data-cell-id="Mdee9xLFCV9MJBnmo9In-105"/><g data-cell-id="Mdee9xLFCV9MJBnmo9In-106"/><g data-cell-id="Mdee9xLFCV9MJBnmo9In-107"/><g data-cell-id="Mdee9xLFCV9MJBnmo9In-108"/><g data-cell-id="Mdee9xLFCV9MJBnmo9In-109"/><g data-cell-id="Mdee9xLFCV9MJBnmo9In-110"/><g data-cell-id="Mdee9xLFCV9MJBnmo9In-111"/><g data-cell-id="Mdee9xLFCV9MJBnmo9In-112"/><g data-cell-id="Mdee9xLFCV9MJBnmo9In-113"/><g data-cell-id="Mdee9xLFCV9MJBnmo9In-114"/><g data-cell-id="Mdee9xLFCV9MJBnmo9In-115"/><g data-cell-id="Mdee9xLFCV9MJBnmo9In-116"/><g data-cell-id="Mdee9xLFCV9MJBnmo9In-117"/><g data-cell-id="Mdee9xLFCV9MJBnmo9In-118"/><g data-cell-id="Mdee9xLFCV9MJBnmo9In-119"/><g data-cell-id="Mdee9xLFCV9MJBnmo9In-120"/><g data-cell-id="Mdee9xLFCV9MJBnmo9In-121"/><g data-cell-id="Mdee9xLFCV9MJBnmo9In-122"/><g data-cell-id="Mdee9xLFCV9MJBnmo9In-123"/><g data-cell-id="Mdee9xLFCV9MJBnmo9In-124"/><g data-cell-id="Mdee9xLFCV9MJBnmo9In-125"/><g data-cell-id="Mdee9xLFCV9MJBnmo9In-126"/><g data-cell-id="Mdee9xLFCV9MJBnmo9In-127"/><g data-cell-id="Mdee9xLFCV9MJBnmo9In-128"/><g data-cell-id="Mdee9xLFCV9MJBnmo9In-129"/><g data-cell-id="Mdee9xLFCV9MJBnmo9In-130"><g><rect x="1" y="0.4" width="104" height="53" fill="none" stroke="none" pointer-events="all"/><path d="M 95.45 53.4 L 95.45 9.84 L 1 9.84 L 1 53.4 Z M 94.92 9.84 L 1 9.84 L 12.67 0.4 L 104.47 0.4 L 104.47 0.94 L 104.47 43.96 L 95.45 53.4 L 95.45 9.84 Z M 95.45 9.84 L 104.47 0.4" fill="#036897" stroke="#ffffff" stroke-width="2" stroke-linejoin="round" stroke-miterlimit="10" pointer-events="all" style="fill: light-dark(rgb(3, 104, 151), rgb(92, 179, 220)); stroke: light-dark(rgb(255, 255, 255), rgb(18, 18, 18));"/><path d="M 73.16 42.38 C 77.41 42.38 81.12 38.71 81.12 33.99 C 81.12 29.79 77.41 26.12 73.16 26.12 C 68.39 26.12 64.68 29.79 64.68 33.99 C 64.68 38.71 68.39 42.38 73.16 42.38 Z M 73.16 26.12 L 86.96 26.12 M 64.68 33.99 L 64.68 20.34 M 73.16 42.38 L 58.83 42.38 M 23.29 42.38 C 18.51 42.38 14.8 38.71 14.8 33.99 C 14.8 29.79 18.51 26.12 23.29 26.12 C 27.54 26.12 31.25 29.79 31.25 33.99 C 31.25 38.71 27.54 42.38 23.29 42.38 Z M 23.29 26.12 L 8.96 26.12 M 31.25 33.99 L 31.25 20.34 M 22.76 42.38 L 37.09 42.38" fill="none" stroke="#ffffff" stroke-width="3.15" stroke-linejoin="round" stroke-miterlimit="10" pointer-events="all" style="stroke: light-dark(rgb(255, 255, 255), rgb(18, 18, 18));"/><path d="M 86.96 20.86 L 86.96 30.84 L 93.33 26.12 Z M 59.9 20.34 L 69.98 20.34 L 65.2 14.05 Z M 58.83 47.62 L 58.83 37.14 L 52.47 42.38 Z M 8.96 20.86 L 8.96 30.84 L 2.59 26.12 Z M 36.55 20.34 L 25.95 20.34 L 31.25 14.05 Z M 37.09 47.62 L 37.09 37.14 L 43.46 42.38 Z" fill="#ffffff" stroke="none" pointer-events="all" style="fill: light-dark(rgb(255, 255, 255), rgb(18, 18, 18));"/><path d="M 48.23 19.82 L 48.23 45.01" fill="none" stroke="#ffffff" stroke-width="2.09" stroke-linejoin="round" stroke-miterlimit="10" pointer-events="all" style="stroke: light-dark(rgb(255, 255, 255), rgb(18, 18, 18));"/></g></g></g></g></g></svg>