<?xml version="1.0" encoding="UTF-8"?>
<!DOCTYPE svg PUBLIC "-//W3C//DTD SVG 1.1//EN" "http://www.w3.org/Graphics/SVG/1.1/DTD/svg11.dtd">
<svg xmlns="http://www.w3.org/2000/svg" style="background: transparent; background-color: transparent; color-scheme: light dark;" xmlns:xlink="http://www.w3.org/1999/xlink" version="1.1" width="82px" height="98px" viewBox="0 0 82 98"><defs/><g><g data-cell-id="0"><g data-cell-id="1"><g data-cell-id="1c7a67bf8fd3230f-83"/><g data-cell-id="1c7a67bf8fd3230f-82"/><g data-cell-id="1c7a67bf8fd3230f-81"/><g data-cell-id="1c7a67bf8fd3230f-80"/><g data-cell-id="1c7a67bf8fd3230f-37"/><g data-cell-id="1c7a67bf8fd3230f-1"/><g data-cell-id="1c7a67bf8fd3230f-38"/><g data-cell-id="1c7a67bf8fd3230f-2"/><g data-cell-id="1c7a67bf8fd3230f-39"/><g data-cell-id="1c7a67bf8fd3230f-3"/><g data-cell-id="1c7a67bf8fd3230f-40"/><g data-cell-id="1c7a67bf8fd3230f-4"/><g data-cell-id="1c7a67bf8fd3230f-41"/><g data-cell-id="1c7a67bf8fd3230f-45"/><g data-cell-id="1c7a67bf8fd3230f-49"/><g data-cell-id="1c7a67bf8fd3230f-50"/><g data-cell-id="1c7a67bf8fd3230f-5"/><g data-cell-id="1c7a67bf8fd3230f-64"/><g data-cell-id="1c7a67bf8fd3230f-65"/><g data-cell-id="1c7a67bf8fd3230f-6"/><g data-cell-id="1c7a67bf8fd3230f-42"/><g data-cell-id="1c7a67bf8fd3230f-7"/><g data-cell-id="1c7a67bf8fd3230f-8"/><g data-cell-id="1c7a67bf8fd3230f-9"/><g data-cell-id="1c7a67bf8fd3230f-43"/><g data-cell-id="1c7a67bf8fd3230f-44"/><g data-cell-id="1c7a67bf8fd3230f-51"/><g data-cell-id="1c7a67bf8fd3230f-10"/><g data-cell-id="1c7a67bf8fd3230f-11"/><g data-cell-id="1c7a67bf8fd3230f-12"/><g data-cell-id="1c7a67bf8fd3230f-56"/><g data-cell-id="1c7a67bf8fd3230f-61"/><g data-cell-id="1c7a67bf8fd3230f-62"/><g data-cell-id="1c7a67bf8fd3230f-13"/><g data-cell-id="1c7a67bf8fd3230f-57"/><g data-cell-id="1c7a67bf8fd3230f-63"/><g data-cell-id="1c7a67bf8fd3230f-14"/><g data-cell-id="1c7a67bf8fd3230f-15"/><g data-cell-id="1c7a67bf8fd3230f-66"/><g data-cell-id="1c7a67bf8fd3230f-16"/><g data-cell-id="1c7a67bf8fd3230f-60"/><g data-cell-id="1c7a67bf8fd3230f-69"/><g data-cell-id="1c7a67bf8fd3230f-70"/><g data-cell-id="1c7a67bf8fd3230f-17"/><g data-cell-id="1c7a67bf8fd3230f-59"/><g data-cell-id="1c7a67bf8fd3230f-18"/><g data-cell-id="1c7a67bf8fd3230f-19"/><g data-cell-id="1c7a67bf8fd3230f-20"/><g data-cell-id="1c7a67bf8fd3230f-67"/><g data-cell-id="1c7a67bf8fd3230f-68"/><g data-cell-id="1c7a67bf8fd3230f-78"/><g data-cell-id="1c7a67bf8fd3230f-79"/><g data-cell-id="1c7a67bf8fd3230f-21"/><g data-cell-id="1c7a67bf8fd3230f-22"/><g data-cell-id="1c7a67bf8fd3230f-23"/><g data-cell-id="1c7a67bf8fd3230f-75"/><g data-cell-id="1c7a67bf8fd3230f-76"/><g data-cell-id="1c7a67bf8fd3230f-77"/><g data-cell-id="1c7a67bf8fd3230f-24"/><g data-cell-id="1c7a67bf8fd3230f-25"/><g data-cell-id="1c7a67bf8fd3230f-26"/><g data-cell-id="1c7a67bf8fd3230f-71"/><g data-cell-id="1c7a67bf8fd3230f-72"/><g data-cell-id="1c7a67bf8fd3230f-73"/><g data-cell-id="1c7a67bf8fd3230f-74"/><g data-cell-id="1c7a67bf8fd3230f-27"/><g data-cell-id="1c7a67bf8fd3230f-28"/><g data-cell-id="1c7a67bf8fd3230f-29"/><g data-cell-id="1c7a67bf8fd3230f-31"/><g data-cell-id="1c7a67bf8fd3230f-32"/><g data-cell-id="1c7a67bf8fd3230f-33"/><g data-cell-id="1c7a67bf8fd3230f-34"/><g data-cell-id="1c7a67bf8fd3230f-35"/><g data-cell-id="1c7a67bf8fd3230f-55"/><g data-cell-id="1c7a67bf8fd3230f-46"/><g data-cell-id="1c7a67bf8fd3230f-54"/><g data-cell-id="1c7a67bf8fd3230f-47"/><g data-cell-id="1c7a67bf8fd3230f-52"/><g data-cell-id="1c7a67bf8fd3230f-48"/><g data-cell-id="rjDXDZ_0ghjuIWEXEoUx-1"/><g data-cell-id="rjDXDZ_0ghjuIWEXEoUx-2"/><g data-cell-id="rjDXDZ_0ghjuIWEXEoUx-3"/><g data-cell-id="rjDXDZ_0ghjuIWEXEoUx-4"/><g data-cell-id="rjDXDZ_0ghjuIWEXEoUx-5"/><g data-cell-id="rjDXDZ_0ghjuIWEXEoUx-6"/><g data-cell-id="rjDXDZ_0ghjuIWEXEoUx-7"/><g data-cell-id="rjDXDZ_0ghjuIWEXEoUx-8"/><g data-cell-id="rjDXDZ_0ghjuIWEXEoUx-9"/><g data-cell-id="rjDXDZ_0ghjuIWEXEoUx-10"/><g data-cell-id="rjDXDZ_0ghjuIWEXEoUx-11"/><g data-cell-id="rjDXDZ_0ghjuIWEXEoUx-12"/><g data-cell-id="rjDXDZ_0ghjuIWEXEoUx-13"/><g data-cell-id="rjDXDZ_0ghjuIWEXEoUx-16"/><g data-cell-id="rjDXDZ_0ghjuIWEXEoUx-17"/><g data-cell-id="rjDXDZ_0ghjuIWEXEoUx-18"/><g data-cell-id="rjDXDZ_0ghjuIWEXEoUx-19"/><g data-cell-id="rjDXDZ_0ghjuIWEXEoUx-20"/><g data-cell-id="rjDXDZ_0ghjuIWEXEoUx-21"/><g data-cell-id="rjDXDZ_0ghjuIWEXEoUx-22"/><g data-cell-id="rjDXDZ_0ghjuIWEXEoUx-23"/><g data-cell-id="rjDXDZ_0ghjuIWEXEoUx-24"/><g data-cell-id="rjDXDZ_0ghjuIWEXEoUx-25"/><g data-cell-id="rjDXDZ_0ghjuIWEXEoUx-26"/><g data-cell-id="rjDXDZ_0ghjuIWEXEoUx-27"/><g data-cell-id="rjDXDZ_0ghjuIWEXEoUx-28"/><g data-cell-id="rjDXDZ_0ghjuIWEXEoUx-32"/><g data-cell-id="rjDXDZ_0ghjuIWEXEoUx-33"><g><rect x="1" y="1" width="80" height="96" fill="none" stroke="none" pointer-events="all"/><path d="M 22.87 14.87 C 40.47 46.33 40.47 46.33 40.47 46.33 C 42.6 50.6 41 56.47 36.74 58.6 C 36.74 58.6 36.74 58.6 36.74 58.6 C 32.47 61.27 27.14 59.67 24.47 55.4 C 7.4 24.47 7.4 24.47 7.4 24.47" fill="#036897" stroke="#ffffff" stroke-width="2" stroke-miterlimit="10" pointer-events="all" style="fill: light-dark(rgb(3, 104, 151), rgb(92, 179, 220)); stroke: light-dark(rgb(255, 255, 255), rgb(18, 18, 18));"/><path d="M 28.2 97 C 14.87 97 4.2 93.8 4.2 89.53 C 4.2 85.27 14.87 82.07 28.2 82.07 C 41.54 82.07 52.2 85.27 52.2 89.53 C 52.2 93.8 41.54 97 28.2 97 Z" fill="#036897" stroke="#ffffff" stroke-width="1.6" stroke-miterlimit="10" pointer-events="all" style="fill: light-dark(rgb(3, 104, 151), rgb(92, 179, 220)); stroke: light-dark(rgb(255, 255, 255), rgb(18, 18, 18));"/><path d="M 28.2 87.4 C 21.8 87.4 16.47 85.8 16.47 83.67 C 16.47 81.53 21.8 79.93 28.2 79.93 C 35.14 79.93 40.47 81.53 40.47 83.67 C 40.47 85.8 35.14 87.4 28.2 87.4 Z" fill="#036897" stroke="#ffffff" stroke-width="1.07" stroke-miterlimit="10" pointer-events="all" style="fill: light-dark(rgb(3, 104, 151), rgb(92, 179, 220)); stroke: light-dark(rgb(255, 255, 255), rgb(18, 18, 18));"/><path d="M 22.87 15.4 C 25.54 19.67 22.87 23.4 18.6 25.53 C 18.6 25.53 18.6 25.53 18.6 25.53 C 14.34 28.2 9.54 28.73 7.4 24.47 C 4.2 18.6 4.2 18.6 4.2 18.6 C 3.67 17.53 3.67 17.53 3.67 17.53 C 1 13.27 2.07 5.8 6.34 3.67 C 6.34 3.67 6.34 3.67 6.34 3.67 C 10.6 1 16.47 3.67 19.14 8.47 C 19.67 9 19.67 9 19.67 9 Z" fill="#036897" stroke="#ffffff" stroke-width="1.07" stroke-miterlimit="10" pointer-events="all" style="fill: light-dark(rgb(3, 104, 151), rgb(92, 179, 220)); stroke: light-dark(rgb(255, 255, 255), rgb(18, 18, 18));"/><path d="M 28.2 85.27 C 26.6 85.27 25.54 84.2 25.54 82.6 C 25.54 39.93 25.54 39.93 25.54 39.93 C 25.54 38.33 26.6 37.27 28.2 37.27 C 28.2 37.27 28.2 37.27 28.2 37.27 C 29.8 37.27 30.87 38.33 30.87 39.93 C 30.87 82.6 30.87 82.6 30.87 82.6 C 30.87 84.2 29.8 85.27 28.2 85.27 Z" fill="#036897" stroke="#ffffff" stroke-width="1.07" stroke-miterlimit="10" pointer-events="all" style="fill: light-dark(rgb(3, 104, 151), rgb(92, 179, 220)); stroke: light-dark(rgb(255, 255, 255), rgb(18, 18, 18));"/><path d="M 28.74 44.73 C 30.34 44.73 31.94 43.67 31.94 42.07 C 31.94 40.47 30.34 38.87 28.74 38.87 C 27.14 38.87 26.07 40.47 26.07 42.07 C 26.07 43.67 27.14 44.73 28.74 44.73 Z" fill="#036897" stroke="#ffffff" stroke-width="1.07" stroke-miterlimit="10" pointer-events="all" style="fill: light-dark(rgb(3, 104, 151), rgb(92, 179, 220)); stroke: light-dark(rgb(255, 255, 255), rgb(18, 18, 18));"/><path d="M 23.4 15.4 C 25.54 20.2 23.4 23.4 18.6 26.07 C 18.6 26.07 18.6 26.07 18.6 26.07 C 14.34 28.2 10.07 28.73 7.4 24.47" fill="none" stroke="#ffffff" stroke-width="1.07" stroke-miterlimit="10" pointer-events="all" style="stroke: light-dark(rgb(255, 255, 255), rgb(18, 18, 18));"/><path d="M 21.8 13.27 C 24.47 17.53 21.8 21.27 17.54 23.4 C 17.54 23.4 17.54 23.4 17.54 23.4 C 13.27 26.07 8.47 26.6 6.34 22.33" fill="none" stroke="#ffffff" stroke-width="1.6" stroke-miterlimit="10" pointer-events="all" style="stroke: light-dark(rgb(255, 255, 255), rgb(18, 18, 18));"/><path d="M 20.74 11.67 C 22.87 15.93 20.2 19.13 16.47 21.8 C 16.47 21.8 16.47 21.8 16.47 21.8 C 12.2 23.93 7.94 24.47 5.27 20.2" fill="none" stroke="#ffffff" stroke-width="1.6" stroke-miterlimit="10" pointer-events="all" style="stroke: light-dark(rgb(255, 255, 255), rgb(18, 18, 18));"/><path d="M 19.67 10.07 C 21.8 13.8 19.14 17 14.87 19.67 C 14.87 19.67 14.87 19.67 14.87 19.67 C 10.6 21.8 6.34 22.33 4.2 18.07" fill="none" stroke="#ffffff" stroke-width="1.6" stroke-miterlimit="10" pointer-events="all" style="stroke: light-dark(rgb(255, 255, 255), rgb(18, 18, 18));"/><path d="M 18.6 7.93 C 20.74 11.67 18.07 14.87 13.8 17.53 C 13.8 17.53 13.8 17.53 13.8 17.53 C 9.54 19.67 5.27 20.2 3.14 15.93" fill="none" stroke="#ffffff" stroke-width="1.6" stroke-miterlimit="10" pointer-events="all" style="stroke: light-dark(rgb(255, 255, 255), rgb(18, 18, 18));"/><path d="M 17 5.8 C 19.14 10.07 17 13.27 12.74 15.4 C 12.74 15.4 12.74 15.4 12.74 15.4 C 9 17.53 4.74 18.07 2.6 14.33" fill="none" stroke="#ffffff" stroke-width="1.6" stroke-miterlimit="10" pointer-events="all" style="stroke: light-dark(rgb(255, 255, 255), rgb(18, 18, 18));"/><path d="M 15.4 4.73 C 17 8.47 14.87 11.13 11.67 12.73 C 11.67 12.73 11.67 12.73 11.67 12.73 C 7.94 14.87 4.74 15.4 2.6 11.67" fill="none" stroke="#ffffff" stroke-width="1.6" stroke-miterlimit="10" pointer-events="all" style="stroke: light-dark(rgb(255, 255, 255), rgb(18, 18, 18));"/><path d="M 13.27 3.67 C 14.87 6.87 13.27 9 10.07 10.6 C 10.07 10.6 10.07 10.6 10.07 10.6 C 7.4 12.2 4.2 12.73 2.6 9.53" fill="none" stroke="#ffffff" stroke-width="1.6" stroke-miterlimit="10" pointer-events="all" style="stroke: light-dark(rgb(255, 255, 255), rgb(18, 18, 18));"/><path d="M 37.27 57 C 38.87 64.47 38.87 75.67 46.87 78.87 C 49 79.93 51.67 79.4 54.34 80.47 C 59.67 82.07 61.8 87.93 66.6 91.67 C 70.87 94.87 76.2 94.87 81 92.73" fill="none" stroke="#ffffff" stroke-width="1.07" stroke-miterlimit="10" pointer-events="all" style="stroke: light-dark(rgb(255, 255, 255), rgb(18, 18, 18));"/></g></g></g></g></g></svg>