<?xml version="1.0" encoding="UTF-8"?>
<!DOCTYPE svg PUBLIC "-//W3C//DTD SVG 1.1//EN" "http://www.w3.org/Graphics/SVG/1.1/DTD/svg11.dtd">
<svg xmlns="http://www.w3.org/2000/svg" style="background: transparent; background-color: transparent; color-scheme: light dark;" xmlns:xlink="http://www.w3.org/1999/xlink" version="1.1" width="92px" height="66px" viewBox="0 0 92 66"><defs/><g><g data-cell-id="0"><g data-cell-id="1"><g data-cell-id="Mdee9xLFCV9MJBnmo9In-98"/><g data-cell-id="Mdee9xLFCV9MJBnmo9In-99"/><g data-cell-id="Mdee9xLFCV9MJBnmo9In-100"/><g data-cell-id="Mdee9xLFCV9MJBnmo9In-101"/><g data-cell-id="Mdee9xLFCV9MJBnmo9In-102"/><g data-cell-id="Mdee9xLFCV9MJBnmo9In-103"/><g data-cell-id="Mdee9xLFCV9MJBnmo9In-104"/><g data-cell-id="Mdee9xLFCV9MJBnmo9In-105"/><g data-cell-id="Mdee9xLFCV9MJBnmo9In-106"/><g data-cell-id="Mdee9xLFCV9MJBnmo9In-107"/><g data-cell-id="Mdee9xLFCV9MJBnmo9In-108"/><g data-cell-id="Mdee9xLFCV9MJBnmo9In-109"/><g data-cell-id="Mdee9xLFCV9MJBnmo9In-110"/><g data-cell-id="Mdee9xLFCV9MJBnmo9In-111"/><g data-cell-id="Mdee9xLFCV9MJBnmo9In-112"/><g data-cell-id="Mdee9xLFCV9MJBnmo9In-113"/><g data-cell-id="Mdee9xLFCV9MJBnmo9In-114"/><g data-cell-id="Mdee9xLFCV9MJBnmo9In-115"/><g data-cell-id="Mdee9xLFCV9MJBnmo9In-116"/><g data-cell-id="Mdee9xLFCV9MJBnmo9In-117"/><g data-cell-id="Mdee9xLFCV9MJBnmo9In-118"/><g data-cell-id="Mdee9xLFCV9MJBnmo9In-119"/><g data-cell-id="Mdee9xLFCV9MJBnmo9In-120"/><g data-cell-id="Mdee9xLFCV9MJBnmo9In-121"/><g data-cell-id="Mdee9xLFCV9MJBnmo9In-122"/><g data-cell-id="Mdee9xLFCV9MJBnmo9In-123"/><g data-cell-id="Mdee9xLFCV9MJBnmo9In-124"/><g data-cell-id="Mdee9xLFCV9MJBnmo9In-125"/><g data-cell-id="Mdee9xLFCV9MJBnmo9In-126"/><g data-cell-id="Mdee9xLFCV9MJBnmo9In-127"/><g data-cell-id="Mdee9xLFCV9MJBnmo9In-128"/><g data-cell-id="Mdee9xLFCV9MJBnmo9In-129"/><g data-cell-id="Mdee9xLFCV9MJBnmo9In-130"/><g data-cell-id="Mdee9xLFCV9MJBnmo9In-132"/><g data-cell-id="Mdee9xLFCV9MJBnmo9In-133"/><g data-cell-id="Mdee9xLFCV9MJBnmo9In-134"/><g data-cell-id="Mdee9xLFCV9MJBnmo9In-135"/><g data-cell-id="Mdee9xLFCV9MJBnmo9In-136"/><g data-cell-id="Mdee9xLFCV9MJBnmo9In-137"/><g data-cell-id="Mdee9xLFCV9MJBnmo9In-138"/><g data-cell-id="Mdee9xLFCV9MJBnmo9In-139"/><g data-cell-id="Mdee9xLFCV9MJBnmo9In-140"/><g data-cell-id="Mdee9xLFCV9MJBnmo9In-141"/><g data-cell-id="Mdee9xLFCV9MJBnmo9In-142"/><g data-cell-id="Mdee9xLFCV9MJBnmo9In-143"/><g data-cell-id="Mdee9xLFCV9MJBnmo9In-144"/><g data-cell-id="Mdee9xLFCV9MJBnmo9In-145"/><g data-cell-id="Mdee9xLFCV9MJBnmo9In-146"/><g data-cell-id="Mdee9xLFCV9MJBnmo9In-147"/><g data-cell-id="Mdee9xLFCV9MJBnmo9In-148"/><g data-cell-id="Mdee9xLFCV9MJBnmo9In-149"/><g data-cell-id="Mdee9xLFCV9MJBnmo9In-150"/><g data-cell-id="Mdee9xLFCV9MJBnmo9In-151"/><g data-cell-id="Mdee9xLFCV9MJBnmo9In-152"/><g data-cell-id="Mdee9xLFCV9MJBnmo9In-153"/><g data-cell-id="Mdee9xLFCV9MJBnmo9In-154"/><g data-cell-id="Mdee9xLFCV9MJBnmo9In-155"/><g data-cell-id="Mdee9xLFCV9MJBnmo9In-156"/><g data-cell-id="Mdee9xLFCV9MJBnmo9In-157"/><g data-cell-id="Mdee9xLFCV9MJBnmo9In-158"/><g data-cell-id="Mdee9xLFCV9MJBnmo9In-159"/><g data-cell-id="Mdee9xLFCV9MJBnmo9In-160"/><g data-cell-id="Mdee9xLFCV9MJBnmo9In-161"/><g data-cell-id="Mdee9xLFCV9MJBnmo9In-162"/><g data-cell-id="Mdee9xLFCV9MJBnmo9In-163"/><g data-cell-id="Mdee9xLFCV9MJBnmo9In-164"/><g data-cell-id="Mdee9xLFCV9MJBnmo9In-165"/><g data-cell-id="Mdee9xLFCV9MJBnmo9In-166"/><g data-cell-id="Mdee9xLFCV9MJBnmo9In-167"/><g data-cell-id="Mdee9xLFCV9MJBnmo9In-168"/><g data-cell-id="Mdee9xLFCV9MJBnmo9In-169"><g><rect x="0.8" y="0.8" width="90" height="64" fill="none" stroke="none" pointer-events="all"/><path d="M 0.8 64.8 L 81.27 64.8 L 81.27 11.91 L 0.8 11.91 Z M 90.8 51.04 L 81.27 64.8 L 81.27 11.91 L 90.8 0.8 Z M 14.57 0.8 L 90.8 0.8 L 81.27 11.91 L 0.8 11.91 Z" fill="#036897" stroke="#ffffff" stroke-width="2" stroke-linejoin="round" stroke-miterlimit="10" pointer-events="all" style="fill: light-dark(rgb(3, 104, 151), rgb(92, 179, 220)); stroke: light-dark(rgb(255, 255, 255), rgb(18, 18, 18));"/><rect x="0.8" y="0.8" width="0" height="0" fill="none" stroke="#ffffff" stroke-width="2" pointer-events="all" style="stroke: light-dark(rgb(255, 255, 255), rgb(18, 18, 18));"/><path d="M 14.57 27.25 L 14.57 30.42 L 6.63 26.18 L 14.57 21.42 L 14.57 25.14 L 14.57 24.6 L 28.34 24.6 L 28.34 21.42 L 36.28 25.66 L 28.34 30.42 L 28.34 26.72 L 14.57 26.72 L 14.57 27.25 Z M 14.57 51.57 L 14.57 55.28 L 6.63 50.52 L 14.57 46.29 L 14.57 49.46 L 14.57 49.46 L 28.34 49.46 L 28.34 45.76 L 36.28 50.52 L 28.34 54.74 L 28.34 51.57 L 14.57 51.57 L 14.57 51.57 Z M 14.57 39.42 L 14.57 43.11 L 6.63 38.35 L 14.57 34.12 L 14.57 37.29 L 14.57 37.29 L 24.1 37.29 L 24.1 34.12 L 32.04 38.35 L 24.1 43.11 L 24.1 39.42 L 14.57 39.42 L 14.57 39.42 Z" fill="#ffffff" stroke="none" pointer-events="all" style="fill: light-dark(rgb(255, 255, 255), rgb(18, 18, 18));"/><path d="M 75.98 48.4 C 74.39 48.4 73.33 44.18 73.85 39.42 C 73.85 34.66 74.92 30.94 75.98 30.94 C 65.91 30.94 65.91 30.94 65.91 30.94 C 64.87 30.94 63.8 34.66 63.8 39.42 C 63.8 44.18 64.33 47.87 65.91 47.87 Z" fill="#ffffff" stroke="none" pointer-events="all" style="fill: light-dark(rgb(255, 255, 255), rgb(18, 18, 18));"/><rect x="0.8" y="0.8" width="0" height="0" fill="none" stroke="#ffffff" stroke-width="2" pointer-events="all" style="stroke: light-dark(rgb(255, 255, 255), rgb(18, 18, 18));"/><path d="M 73.85 39.42 C 73.33 44.18 74.39 47.87 75.98 47.87 C 77.57 47.87 78.62 44.18 78.62 39.42 C 78.62 35.18 77.57 31.48 75.98 31.48 C 74.92 31.48 73.85 35.18 73.85 39.42 Z" fill="#036897" stroke="#ffffff" stroke-width="1.06" stroke-miterlimit="10" pointer-events="all" style="fill: light-dark(rgb(3, 104, 151), rgb(92, 179, 220)); stroke: light-dark(rgb(255, 255, 255), rgb(18, 18, 18));"/><path d="M 68.04 38.88 C 68.04 48.4 60.63 55.8 51.1 55.8 C 41.57 55.8 34.15 47.87 34.15 38.88 C 34.15 29.36 42.09 21.96 51.62 21.96 C 60.63 21.96 68.57 29.36 68.04 38.88 Z" fill="#ffffff" stroke="none" pointer-events="all" style="fill: light-dark(rgb(255, 255, 255), rgb(18, 18, 18));"/><path d="M 59.56 39.42 C 59.56 43.64 55.86 47.35 51.1 47.35 C 46.86 47.35 43.16 43.64 43.16 38.88 C 43.16 34.66 46.86 30.94 51.62 30.94 C 55.86 30.94 59.56 34.66 59.56 39.42 Z" fill="#036897" stroke="none" pointer-events="all" style="fill: light-dark(rgb(3, 104, 151), rgb(92, 179, 220));"/></g></g></g></g></g></svg>