<?xml version="1.0" encoding="UTF-8"?>
<!DOCTYPE svg PUBLIC "-//W3C//DTD SVG 1.1//EN" "http://www.w3.org/Graphics/SVG/1.1/DTD/svg11.dtd">
<svg xmlns="http://www.w3.org/2000/svg" style="background: transparent; background-color: transparent; color-scheme: light dark;" xmlns:xlink="http://www.w3.org/1999/xlink" version="1.1" width="71px" height="66px" viewBox="0 0 71 66"><defs/><g><g data-cell-id="0"><g data-cell-id="1"><g data-cell-id="Mdee9xLFCV9MJBnmo9In-98"/><g data-cell-id="Mdee9xLFCV9MJBnmo9In-99"/><g data-cell-id="Mdee9xLFCV9MJBnmo9In-100"/><g data-cell-id="Mdee9xLFCV9MJBnmo9In-101"/><g data-cell-id="Mdee9xLFCV9MJBnmo9In-102"/><g data-cell-id="Mdee9xLFCV9MJBnmo9In-103"/><g data-cell-id="Mdee9xLFCV9MJBnmo9In-104"/><g data-cell-id="Mdee9xLFCV9MJBnmo9In-105"/><g data-cell-id="Mdee9xLFCV9MJBnmo9In-106"/><g data-cell-id="Mdee9xLFCV9MJBnmo9In-107"/><g data-cell-id="Mdee9xLFCV9MJBnmo9In-108"/><g data-cell-id="Mdee9xLFCV9MJBnmo9In-109"/><g data-cell-id="Mdee9xLFCV9MJBnmo9In-110"/><g data-cell-id="Mdee9xLFCV9MJBnmo9In-111"/><g data-cell-id="Mdee9xLFCV9MJBnmo9In-112"/><g data-cell-id="Mdee9xLFCV9MJBnmo9In-113"/><g data-cell-id="Mdee9xLFCV9MJBnmo9In-114"/><g data-cell-id="Mdee9xLFCV9MJBnmo9In-115"/><g data-cell-id="Mdee9xLFCV9MJBnmo9In-116"/><g data-cell-id="Mdee9xLFCV9MJBnmo9In-117"/><g data-cell-id="Mdee9xLFCV9MJBnmo9In-118"/><g data-cell-id="Mdee9xLFCV9MJBnmo9In-119"/><g data-cell-id="Mdee9xLFCV9MJBnmo9In-120"/><g data-cell-id="Mdee9xLFCV9MJBnmo9In-121"/><g data-cell-id="Mdee9xLFCV9MJBnmo9In-122"/><g data-cell-id="Mdee9xLFCV9MJBnmo9In-123"/><g data-cell-id="Mdee9xLFCV9MJBnmo9In-124"/><g data-cell-id="Mdee9xLFCV9MJBnmo9In-125"/><g data-cell-id="Mdee9xLFCV9MJBnmo9In-126"/><g data-cell-id="Mdee9xLFCV9MJBnmo9In-127"/><g data-cell-id="Mdee9xLFCV9MJBnmo9In-128"/><g data-cell-id="Mdee9xLFCV9MJBnmo9In-129"/><g data-cell-id="Mdee9xLFCV9MJBnmo9In-130"/><g data-cell-id="Mdee9xLFCV9MJBnmo9In-132"/><g data-cell-id="Mdee9xLFCV9MJBnmo9In-133"/><g data-cell-id="Mdee9xLFCV9MJBnmo9In-134"/><g data-cell-id="Mdee9xLFCV9MJBnmo9In-135"/><g data-cell-id="Mdee9xLFCV9MJBnmo9In-136"/><g data-cell-id="Mdee9xLFCV9MJBnmo9In-137"/><g data-cell-id="Mdee9xLFCV9MJBnmo9In-138"/><g data-cell-id="Mdee9xLFCV9MJBnmo9In-139"/><g data-cell-id="Mdee9xLFCV9MJBnmo9In-140"/><g data-cell-id="Mdee9xLFCV9MJBnmo9In-141"/><g data-cell-id="Mdee9xLFCV9MJBnmo9In-142"/><g data-cell-id="Mdee9xLFCV9MJBnmo9In-143"/><g data-cell-id="Mdee9xLFCV9MJBnmo9In-144"/><g data-cell-id="Mdee9xLFCV9MJBnmo9In-145"/><g data-cell-id="Mdee9xLFCV9MJBnmo9In-146"/><g data-cell-id="Mdee9xLFCV9MJBnmo9In-147"/><g data-cell-id="Mdee9xLFCV9MJBnmo9In-148"/><g data-cell-id="Mdee9xLFCV9MJBnmo9In-149"/><g data-cell-id="Mdee9xLFCV9MJBnmo9In-150"/><g data-cell-id="Mdee9xLFCV9MJBnmo9In-151"/><g data-cell-id="Mdee9xLFCV9MJBnmo9In-152"/><g data-cell-id="Mdee9xLFCV9MJBnmo9In-153"/><g data-cell-id="Mdee9xLFCV9MJBnmo9In-154"/><g data-cell-id="Mdee9xLFCV9MJBnmo9In-155"/><g data-cell-id="Mdee9xLFCV9MJBnmo9In-156"/><g data-cell-id="Mdee9xLFCV9MJBnmo9In-157"/><g data-cell-id="Mdee9xLFCV9MJBnmo9In-158"/><g data-cell-id="Mdee9xLFCV9MJBnmo9In-159"/><g data-cell-id="Mdee9xLFCV9MJBnmo9In-160"/><g data-cell-id="Mdee9xLFCV9MJBnmo9In-161"/><g data-cell-id="Mdee9xLFCV9MJBnmo9In-162"/><g data-cell-id="Mdee9xLFCV9MJBnmo9In-163"/><g data-cell-id="Mdee9xLFCV9MJBnmo9In-164"/><g data-cell-id="Mdee9xLFCV9MJBnmo9In-165"/><g data-cell-id="Mdee9xLFCV9MJBnmo9In-166"/><g data-cell-id="Mdee9xLFCV9MJBnmo9In-167"/><g data-cell-id="Mdee9xLFCV9MJBnmo9In-168"/><g data-cell-id="Mdee9xLFCV9MJBnmo9In-169"/><g data-cell-id="Mdee9xLFCV9MJBnmo9In-170"/><g data-cell-id="Mdee9xLFCV9MJBnmo9In-171"/><g data-cell-id="Mdee9xLFCV9MJBnmo9In-172"/><g data-cell-id="Mdee9xLFCV9MJBnmo9In-173"/><g data-cell-id="Mdee9xLFCV9MJBnmo9In-174"/><g data-cell-id="Mdee9xLFCV9MJBnmo9In-175"/><g data-cell-id="Mdee9xLFCV9MJBnmo9In-176"/><g data-cell-id="Mdee9xLFCV9MJBnmo9In-177"/><g data-cell-id="Mdee9xLFCV9MJBnmo9In-178"/><g data-cell-id="Mdee9xLFCV9MJBnmo9In-179"/><g data-cell-id="Mdee9xLFCV9MJBnmo9In-180"/><g data-cell-id="Mdee9xLFCV9MJBnmo9In-181"/><g data-cell-id="Mdee9xLFCV9MJBnmo9In-186"/><g data-cell-id="Mdee9xLFCV9MJBnmo9In-182"/><g data-cell-id="Mdee9xLFCV9MJBnmo9In-183"/><g data-cell-id="Mdee9xLFCV9MJBnmo9In-184"/><g data-cell-id="Mdee9xLFCV9MJBnmo9In-185"/><g data-cell-id="Mdee9xLFCV9MJBnmo9In-187"/><g data-cell-id="Mdee9xLFCV9MJBnmo9In-188"/><g data-cell-id="Mdee9xLFCV9MJBnmo9In-189"/><g data-cell-id="Mdee9xLFCV9MJBnmo9In-190"/><g data-cell-id="Mdee9xLFCV9MJBnmo9In-191"/><g data-cell-id="Mdee9xLFCV9MJBnmo9In-192"/><g data-cell-id="Mdee9xLFCV9MJBnmo9In-193"/><g data-cell-id="Mdee9xLFCV9MJBnmo9In-194"/><g data-cell-id="Mdee9xLFCV9MJBnmo9In-195"/><g data-cell-id="Mdee9xLFCV9MJBnmo9In-196"/><g data-cell-id="Mdee9xLFCV9MJBnmo9In-197"/><g data-cell-id="Mdee9xLFCV9MJBnmo9In-198"/><g data-cell-id="Mdee9xLFCV9MJBnmo9In-199"/><g data-cell-id="Mdee9xLFCV9MJBnmo9In-200"/><g data-cell-id="Mdee9xLFCV9MJBnmo9In-201"/><g data-cell-id="Mdee9xLFCV9MJBnmo9In-202"/><g data-cell-id="Mdee9xLFCV9MJBnmo9In-203"/><g data-cell-id="Mdee9xLFCV9MJBnmo9In-204"/><g data-cell-id="Mdee9xLFCV9MJBnmo9In-205"/><g data-cell-id="Mdee9xLFCV9MJBnmo9In-206"/><g data-cell-id="Mdee9xLFCV9MJBnmo9In-207"/><g data-cell-id="Mdee9xLFCV9MJBnmo9In-208"/><g data-cell-id="Mdee9xLFCV9MJBnmo9In-209"/><g data-cell-id="Mdee9xLFCV9MJBnmo9In-210"><g><rect x="0.6" y="0.8" width="69" height="64" fill="none" stroke="none" pointer-events="all"/><path d="M 64.34 64.8 L 64.34 6.06 L 0.6 6.06 L 0.6 64.8 Z M 0.6 6.06 L 7.44 0.8 L 69.6 0.8 L 64.34 6.06 Z M 64.34 64.8 L 69.6 58.51 L 69.6 0.8 L 64.34 6.06 Z" fill="#036897" stroke="#ffffff" stroke-width="2" stroke-linejoin="round" stroke-miterlimit="10" pointer-events="all" style="fill: light-dark(rgb(3, 104, 151), rgb(92, 179, 220)); stroke: light-dark(rgb(255, 255, 255), rgb(18, 18, 18));"/><path d="M 63.82 25.98 C 51.69 25.98 51.69 25.98 51.69 25.98 C 47.47 25.98 47.47 21.79 47.47 21.79 C 53.8 7.63 42.21 9.72 42.21 9.72 C 42.21 9.72 31.15 7.63 37.47 21.79 C 37.47 21.79 37.47 25.98 33.25 25.98 C 4.28 25.98 4.28 25.98 4.28 25.98 C 4.28 25.98 1.64 26.51 1.12 29.66" fill="none" stroke="#ffffff" stroke-width="2" stroke-linejoin="round" stroke-miterlimit="10" pointer-events="all" style="stroke: light-dark(rgb(255, 255, 255), rgb(18, 18, 18));"/><path d="M 0.6 44.34 C 12.71 44.34 12.71 44.34 12.71 44.34 C 16.93 44.34 16.93 48.54 16.93 48.54 C 10.08 62.71 21.67 60.6 21.67 60.6 C 21.67 60.6 33.25 62.71 26.93 48.54 C 26.93 48.54 26.93 44.34 31.15 44.34 C 60.12 44.34 60.12 44.34 60.12 44.34 C 60.12 44.34 62.24 43.82 63.28 40.68" fill="none" stroke="#ffffff" stroke-width="2" stroke-linejoin="round" stroke-miterlimit="10" pointer-events="all" style="stroke: light-dark(rgb(255, 255, 255), rgb(18, 18, 18));"/><path d="M 15.35 32.81 L 16.93 35.42 L 11.13 36.47 L 12.18 35.42 L 3.22 33.85 L 5.34 32.27 L 14.29 33.85 Z M 23.77 38.57 L 22.73 35.96 L 28.51 34.9 L 27.47 35.96 L 36.41 37.53 L 34.31 39.1 L 25.35 37.53 Z M 21.15 31.75 L 26.93 29.66 L 27.47 32.27 L 25.89 32.27 L 22.73 34.9 L 20.09 34.38 L 22.73 31.75 Z M 18.51 40.68 L 12.71 42.25 L 12.18 39.1 L 14.29 39.62 L 17.45 36.99 L 20.09 37.53 L 16.4 40.14 Z M 50.11 35.42 L 54.33 38.57 L 55.91 38.57 L 56.44 37.53 L 60.65 39.1 L 56.44 40.68 L 55.91 39.62 L 53.8 39.62 L 49.05 36.47 L 44.85 39.62 L 42.21 39.62 L 42.21 40.68 L 37.99 39.1 L 42.21 37.53 L 42.21 38.57 L 43.79 38.57 L 48.01 35.42 L 43.79 32.27 L 42.21 32.27 L 42.21 33.33 L 37.99 31.75 L 42.21 30.18 L 42.21 30.7 L 44.85 30.7 L 49.05 34.38 L 53.8 30.7 L 55.91 30.7 L 56.44 30.18 L 60.65 31.75 L 56.44 33.33 L 55.91 32.27 L 54.33 32.27 Z" fill="#ffffff" stroke="none" pointer-events="all" style="fill: light-dark(rgb(255, 255, 255), rgb(18, 18, 18));"/></g></g></g></g></g></svg>