<?xml version="1.0" encoding="UTF-8"?>
<!DOCTYPE svg PUBLIC "-//W3C//DTD SVG 1.1//EN" "http://www.w3.org/Graphics/SVG/1.1/DTD/svg11.dtd">
<svg xmlns="http://www.w3.org/2000/svg" style="background: transparent; background-color: transparent; color-scheme: light dark;" xmlns:xlink="http://www.w3.org/1999/xlink" version="1.1" width="64px" height="40px" viewBox="0 0 64 40"><defs/><g><g data-cell-id="0"><g data-cell-id="1"><g data-cell-id="Mdee9xLFCV9MJBnmo9In-98"/><g data-cell-id="Mdee9xLFCV9MJBnmo9In-99"/><g data-cell-id="Mdee9xLFCV9MJBnmo9In-100"/><g data-cell-id="Mdee9xLFCV9MJBnmo9In-101"/><g data-cell-id="Mdee9xLFCV9MJBnmo9In-102"/><g data-cell-id="Mdee9xLFCV9MJBnmo9In-103"/><g data-cell-id="Mdee9xLFCV9MJBnmo9In-104"/><g data-cell-id="Mdee9xLFCV9MJBnmo9In-105"/><g data-cell-id="Mdee9xLFCV9MJBnmo9In-106"/><g data-cell-id="Mdee9xLFCV9MJBnmo9In-107"/><g data-cell-id="Mdee9xLFCV9MJBnmo9In-108"/><g data-cell-id="Mdee9xLFCV9MJBnmo9In-109"/><g data-cell-id="Mdee9xLFCV9MJBnmo9In-110"/><g data-cell-id="Mdee9xLFCV9MJBnmo9In-111"/><g data-cell-id="Mdee9xLFCV9MJBnmo9In-112"/><g data-cell-id="Mdee9xLFCV9MJBnmo9In-113"/><g data-cell-id="Mdee9xLFCV9MJBnmo9In-114"/><g data-cell-id="Mdee9xLFCV9MJBnmo9In-115"><g><rect x="0.8" y="0.4" width="61" height="38" fill="none" stroke="none" pointer-events="all"/><path d="M 52.86 38.4 L 52.86 8.21 L 0.8 8.21 L 0.8 38.4 Z M 61.8 0.4 L 9.74 0.4 L 0.8 8.21 L 52.86 8.21 Z M 61.8 30.59 L 61.8 0.4 L 52.86 8.21 L 52.86 38.4 Z" fill="#036897" stroke="#ffffff" stroke-width="2" stroke-linejoin="round" stroke-miterlimit="10" pointer-events="all" style="fill: light-dark(rgb(3, 104, 151), rgb(92, 179, 220)); stroke: light-dark(rgb(255, 255, 255), rgb(18, 18, 18));"/><path d="M 47.6 32.15 L 47.6 22.78 L 41.81 26.95 Z M 6.59 32.15 L 6.59 22.78 L 12.36 26.95 Z M 10.26 13.41 L 10.26 22.78 L 4.48 18.1 Z M 43.39 13.41 L 43.39 22.78 L 49.18 18.1 Z" fill="#ffffff" stroke="none" pointer-events="all" style="fill: light-dark(rgb(255, 255, 255), rgb(18, 18, 18));"/><path d="M 44.45 17.58 L 41.29 17.58 M 46.03 26.95 L 50.22 26.95 M 8.17 26.95 L 3.43 26.95 M 8.17 18.1 L 12.9 18.1" fill="none" stroke="#ffffff" stroke-width="1.56" stroke-linejoin="round" stroke-miterlimit="10" pointer-events="all" style="stroke: light-dark(rgb(255, 255, 255), rgb(18, 18, 18));"/><path d="M 37.08 18.1 L 37.08 35.81 L 17.1 35.81 L 17.1 18.1 Z" fill="#ffffff" stroke="none" pointer-events="all" style="fill: light-dark(rgb(255, 255, 255), rgb(18, 18, 18));"/><rect x="0.8" y="0.4" width="0" height="0" fill="none" stroke="#ffffff" stroke-width="2" pointer-events="all" style="stroke: light-dark(rgb(255, 255, 255), rgb(18, 18, 18));"/><path d="M 34.98 24.34 L 19.21 24.34 L 19.21 19.14 L 34.98 19.14 Z M 34.98 34.76 L 19.21 34.76 L 19.21 25.91 L 34.98 25.91 Z" fill="none" stroke="#000000" stroke-width="1.56" stroke-miterlimit="10" pointer-events="all" style="stroke: light-dark(rgb(0, 0, 0), rgb(237, 237, 237));"/><path d="M 31.29 12.38 C 31.29 12.38 32.35 11.85 32.35 12.89 C 32.87 16.02 32.87 16.02 32.87 16.02 C 39.18 17.58 39.18 17.58 39.18 17.58 C 40.24 16.02 40.24 16.02 40.24 16.02 C 38.14 11.85 38.14 11.85 38.14 11.85 C 29.71 9.77 26.56 10.29 26.56 10.29 C 27.1 10.29 27.1 10.29 27.1 10.29 C 27.1 10.29 23.94 9.77 15.52 11.85 C 13.94 16.02 13.94 16.02 13.94 16.02 C 14.48 17.58 14.48 17.58 14.48 17.58 C 21.31 16.02 21.31 16.02 21.31 16.02 C 21.31 12.89 21.31 12.89 21.31 12.89 C 21.83 11.85 22.36 12.38 22.36 12.38 Z" fill="#ffffff" stroke="none" pointer-events="all" style="fill: light-dark(rgb(255, 255, 255), rgb(18, 18, 18));"/></g></g></g></g></g></svg>