<?xml version="1.0" encoding="UTF-8"?>
<!DOCTYPE svg PUBLIC "-//W3C//DTD SVG 1.1//EN" "http://www.w3.org/Graphics/SVG/1.1/DTD/svg11.dtd">
<svg xmlns="http://www.w3.org/2000/svg" style="background: transparent; background-color: transparent; color-scheme: light dark;" xmlns:xlink="http://www.w3.org/1999/xlink" version="1.1" width="79px" height="69px" viewBox="0 0 79 69"><defs/><g><g data-cell-id="0"><g data-cell-id="1"><g data-cell-id="Mdee9xLFCV9MJBnmo9In-98"/><g data-cell-id="Mdee9xLFCV9MJBnmo9In-99"/><g data-cell-id="Mdee9xLFCV9MJBnmo9In-100"/><g data-cell-id="Mdee9xLFCV9MJBnmo9In-101"/><g data-cell-id="Mdee9xLFCV9MJBnmo9In-102"/><g data-cell-id="Mdee9xLFCV9MJBnmo9In-103"/><g data-cell-id="Mdee9xLFCV9MJBnmo9In-104"/><g data-cell-id="Mdee9xLFCV9MJBnmo9In-105"/><g data-cell-id="Mdee9xLFCV9MJBnmo9In-106"/><g data-cell-id="Mdee9xLFCV9MJBnmo9In-107"/><g data-cell-id="Mdee9xLFCV9MJBnmo9In-108"/><g data-cell-id="Mdee9xLFCV9MJBnmo9In-109"/><g data-cell-id="Mdee9xLFCV9MJBnmo9In-110"/><g data-cell-id="Mdee9xLFCV9MJBnmo9In-111"/><g data-cell-id="Mdee9xLFCV9MJBnmo9In-112"/><g data-cell-id="Mdee9xLFCV9MJBnmo9In-113"/><g data-cell-id="Mdee9xLFCV9MJBnmo9In-114"/><g data-cell-id="Mdee9xLFCV9MJBnmo9In-115"/><g data-cell-id="Mdee9xLFCV9MJBnmo9In-116"/><g data-cell-id="Mdee9xLFCV9MJBnmo9In-117"/><g data-cell-id="Mdee9xLFCV9MJBnmo9In-118"/><g data-cell-id="Mdee9xLFCV9MJBnmo9In-119"/><g data-cell-id="Mdee9xLFCV9MJBnmo9In-120"/><g data-cell-id="Mdee9xLFCV9MJBnmo9In-121"/><g data-cell-id="Mdee9xLFCV9MJBnmo9In-122"><g><rect x="0.6" y="0.8" width="77" height="67" fill="none" stroke="none" pointer-events="all"/><path d="M 77.6 15.68 C 77.6 24.2 60.62 31.11 39.36 31.11 C 17.6 31.11 0.6 24.2 0.6 15.68 C 0.6 52.92 0.6 52.92 0.6 52.92 C 0.6 60.89 17.6 67.8 39.36 67.8 C 60.62 67.8 77.6 60.89 77.6 52.92 Z" fill="#036897" stroke="#ffffff" stroke-width="2" stroke-linejoin="round" stroke-miterlimit="10" pointer-events="all" style="fill: light-dark(rgb(3, 104, 151), rgb(92, 179, 220)); stroke: light-dark(rgb(255, 255, 255), rgb(18, 18, 18));"/><path d="M 39.36 31.11 C 60.62 31.11 77.6 24.2 77.6 15.68 C 77.6 7.71 60.62 0.8 39.36 0.8 C 17.6 0.8 0.6 7.71 0.6 15.68 C 0.6 24.2 17.6 31.11 39.36 31.11 Z" fill="#036897" stroke="#ffffff" stroke-width="2" stroke-linejoin="round" stroke-miterlimit="10" pointer-events="all" style="fill: light-dark(rgb(3, 104, 151), rgb(92, 179, 220)); stroke: light-dark(rgb(255, 255, 255), rgb(18, 18, 18));"/><path d="M 30.87 9.85 L 34.06 14.63 L 21.84 17.28 L 24.5 15.16 L 5.38 11.97 L 10.16 8.78 L 28.21 11.44 Z M 47.87 21.54 L 45.74 16.75 L 56.89 14.63 L 54.77 16.23 L 72.82 19.42 L 68.58 22.61 L 50.52 19.42 Z M 42.02 7.18 L 54.24 3.99 L 54.24 9.3 L 51.06 8.78 L 45.21 13.56 L 39.36 12.49 L 45.74 7.71 Z M 36.72 26.32 L 25.02 28.45 L 24.5 23.13 L 27.68 23.66 L 34.06 18.35 L 39.9 18.87 L 32.99 25.25 Z" fill="#ffffff" stroke="none" pointer-events="all" style="fill: light-dark(rgb(255, 255, 255), rgb(18, 18, 18));"/><rect x="0.6" y="0.8" width="0" height="0" fill="none" stroke="#ffffff" stroke-width="2" pointer-events="all" style="stroke: light-dark(rgb(255, 255, 255), rgb(18, 18, 18));"/><path d="M 71.23 57.7 L 71.23 44.4 L 63.26 50.78 Z M 6.97 57.7 L 6.97 44.4 L 14.94 50.78 Z M 12.28 31.64 L 12.28 44.94 L 4.31 38.56 Z M 65.4 31.64 L 65.4 44.94 L 73.36 38.56 Z" fill="#ffffff" stroke="#000000" stroke-width="0.64" stroke-miterlimit="10" pointer-events="all" style="fill: light-dark(rgb(255, 255, 255), rgb(18, 18, 18)); stroke: light-dark(rgb(0, 0, 0), rgb(237, 237, 237));"/><path d="M 66.99 38.02 L 62.21 38.02 M 69.11 50.78 L 74.96 50.78 M 9.09 50.78 L 2.72 50.78 M 9.63 38.56 L 15.46 38.56" fill="none" stroke="#ffffff" stroke-width="1.59" stroke-miterlimit="10" pointer-events="all" style="stroke: light-dark(rgb(255, 255, 255), rgb(18, 18, 18));"/><path d="M 56.36 42.28 L 56.36 65.68 L 21.84 65.68 L 21.31 42.28 Z" fill="#ffffff" stroke="#000000" stroke-width="0.64" stroke-miterlimit="10" pointer-events="all" style="fill: light-dark(rgb(255, 255, 255), rgb(18, 18, 18)); stroke: light-dark(rgb(0, 0, 0), rgb(237, 237, 237));"/><path d="M 47.87 35.37 C 47.87 35.37 49.46 35.37 49.46 36.42 C 49.99 41.21 49.99 41.21 49.99 41.21 C 59.02 42.8 59.02 42.8 59.02 42.8 C 60.07 40.68 60.07 40.68 60.07 40.68 C 57.96 35.37 57.96 35.37 57.96 35.37 C 46.28 32.18 35.12 33.23 35.12 33.23 C 35.12 33.23 35.12 33.23 35.12 33.23 C 35.12 33.23 31.4 32.18 19.72 35.37 C 17.6 40.68 17.6 40.68 17.6 40.68 C 18.13 42.8 18.13 42.8 18.13 42.8 C 27.16 41.21 27.16 41.21 27.16 41.21 C 27.68 36.42 27.68 36.42 27.68 36.42 C 28.21 35.37 29.28 35.37 29.28 35.37 Z" fill="#ffffff" stroke="#000000" stroke-width="0.64" stroke-miterlimit="10" pointer-events="all" style="fill: light-dark(rgb(255, 255, 255), rgb(18, 18, 18)); stroke: light-dark(rgb(0, 0, 0), rgb(237, 237, 237));"/><path d="M 54.24 43.35 L 54.24 47.59 L 23.43 47.59 L 23.43 43.35 Z M 54.24 49.73 L 54.24 64.08 L 23.43 64.08 L 23.43 49.73 Z" fill="none" stroke="#000000" stroke-width="0.64" stroke-miterlimit="10" pointer-events="all" style="stroke: light-dark(rgb(0, 0, 0), rgb(237, 237, 237));"/><path d="M 52.11 63.01 L 25.57 63.01 L 25.57 50.25 L 52.11 50.25 Z" fill="none" stroke="#000000" stroke-width="0.64" stroke-miterlimit="10" pointer-events="all" style="stroke: light-dark(rgb(0, 0, 0), rgb(237, 237, 237));"/><path d="M 23.43 49.73 L 39.36 57.7 L 54.24 49.73 Z" fill="#ffffff" stroke="#000000" stroke-width="0.64" stroke-linejoin="round" stroke-miterlimit="10" pointer-events="all" style="fill: light-dark(rgb(255, 255, 255), rgb(18, 18, 18)); stroke: light-dark(rgb(0, 0, 0), rgb(237, 237, 237));"/></g></g></g></g></g></svg>