<?xml version="1.0" encoding="UTF-8"?>
<!DOCTYPE svg PUBLIC "-//W3C//DTD SVG 1.1//EN" "http://www.w3.org/Graphics/SVG/1.1/DTD/svg11.dtd">
<svg xmlns="http://www.w3.org/2000/svg" style="background: transparent; background-color: transparent; color-scheme: light dark;" xmlns:xlink="http://www.w3.org/1999/xlink" version="1.1" width="77px" height="57px" viewBox="0 0 77 57"><defs/><g><g data-cell-id="0"><g data-cell-id="1"><g data-cell-id="Mdee9xLFCV9MJBnmo9In-98"/><g data-cell-id="Mdee9xLFCV9MJBnmo9In-99"/><g data-cell-id="Mdee9xLFCV9MJBnmo9In-100"/><g data-cell-id="Mdee9xLFCV9MJBnmo9In-101"/><g data-cell-id="Mdee9xLFCV9MJBnmo9In-102"/><g data-cell-id="Mdee9xLFCV9MJBnmo9In-103"/><g data-cell-id="Mdee9xLFCV9MJBnmo9In-104"/><g data-cell-id="Mdee9xLFCV9MJBnmo9In-105"/><g data-cell-id="Mdee9xLFCV9MJBnmo9In-106"/><g data-cell-id="Mdee9xLFCV9MJBnmo9In-107"/><g data-cell-id="Mdee9xLFCV9MJBnmo9In-108"/><g data-cell-id="Mdee9xLFCV9MJBnmo9In-109"/><g data-cell-id="Mdee9xLFCV9MJBnmo9In-110"/><g data-cell-id="Mdee9xLFCV9MJBnmo9In-111"/><g data-cell-id="Mdee9xLFCV9MJBnmo9In-112"/><g data-cell-id="Mdee9xLFCV9MJBnmo9In-113"/><g data-cell-id="Mdee9xLFCV9MJBnmo9In-114"/><g data-cell-id="Mdee9xLFCV9MJBnmo9In-115"/><g data-cell-id="Mdee9xLFCV9MJBnmo9In-116"/><g data-cell-id="Mdee9xLFCV9MJBnmo9In-117"/><g data-cell-id="Mdee9xLFCV9MJBnmo9In-118"/><g data-cell-id="Mdee9xLFCV9MJBnmo9In-119"/><g data-cell-id="Mdee9xLFCV9MJBnmo9In-120"/><g data-cell-id="Mdee9xLFCV9MJBnmo9In-121"/><g data-cell-id="Mdee9xLFCV9MJBnmo9In-122"/><g data-cell-id="Mdee9xLFCV9MJBnmo9In-123"/><g data-cell-id="Mdee9xLFCV9MJBnmo9In-124"/><g data-cell-id="Mdee9xLFCV9MJBnmo9In-125"/><g data-cell-id="Mdee9xLFCV9MJBnmo9In-126"/><g data-cell-id="Mdee9xLFCV9MJBnmo9In-127"/><g data-cell-id="Mdee9xLFCV9MJBnmo9In-128"/><g data-cell-id="Mdee9xLFCV9MJBnmo9In-129"/><g data-cell-id="Mdee9xLFCV9MJBnmo9In-130"/><g data-cell-id="Mdee9xLFCV9MJBnmo9In-132"/><g data-cell-id="Mdee9xLFCV9MJBnmo9In-133"/><g data-cell-id="Mdee9xLFCV9MJBnmo9In-134"/><g data-cell-id="Mdee9xLFCV9MJBnmo9In-135"/><g data-cell-id="Mdee9xLFCV9MJBnmo9In-136"><g><rect x="0.6" y="1" width="75" height="54" fill="none" stroke="none" pointer-events="all"/><path d="M 0.6 13.18 L 16.85 1 L 75.6 1 L 64.05 13.18 Z M 64.05 54.48 L 75.6 42.29 L 75.6 1 L 64.05 13.18 Z M 64.05 54.48 L 64.05 13.18 L 0.6 13.18 L 0.6 54.48 Z" fill="#036897" stroke="#ffffff" stroke-width="2" stroke-linejoin="round" stroke-miterlimit="10" pointer-events="all" style="fill: light-dark(rgb(3, 104, 151), rgb(92, 179, 220)); stroke: light-dark(rgb(255, 255, 255), rgb(18, 18, 18));"/><path d="M 59.87 23.76 C 59.87 23.76 55.67 34.35 50.95 23.76 C 45.71 13.18 42.03 23.76 42.03 23.76 C 42.03 23.76 37.84 34.35 32.59 23.76 C 27.87 13.18 23.68 23.76 23.68 23.76 C 23.68 23.76 19.48 34.35 14.76 23.76 C 10.04 13.18 5.84 23.76 5.84 23.76" fill="none" stroke="#000000" stroke-width="1.05" stroke-linejoin="round" stroke-linecap="round" stroke-miterlimit="10" pointer-events="all" style="stroke: light-dark(rgb(0, 0, 0), rgb(237, 237, 237));"/><path d="M 5.84 23.76 C 5.84 23.76 10.04 34.35 14.76 23.76 C 19.48 13.18 23.68 23.76 23.68 23.76 C 23.68 23.76 27.87 34.35 32.59 23.76 C 37.84 13.18 42.03 23.76 42.03 23.76 C 42.03 23.76 45.71 34.35 50.95 23.76 C 55.67 13.18 59.87 23.76 59.87 23.76" fill="none" stroke="#000000" stroke-width="2.09" stroke-linejoin="round" stroke-linecap="round" stroke-miterlimit="10" pointer-events="all" style="stroke: light-dark(rgb(0, 0, 0), rgb(237, 237, 237));"/><path d="M 58.81 23.76 C 58.81 23.76 54.61 34.35 49.89 23.76 C 45.17 13.18 40.99 23.76 40.99 23.76 C 40.99 23.76 36.79 34.35 32.07 23.76 C 26.83 13.18 22.63 23.76 22.63 23.76 C 22.63 23.76 18.96 34.35 13.71 23.76 C 8.99 13.18 4.8 23.76 4.8 23.76" fill="none" stroke="#ffffff" stroke-width="1.05" stroke-linejoin="round" stroke-linecap="round" stroke-miterlimit="10" pointer-events="all" style="stroke: light-dark(rgb(255, 255, 255), rgb(18, 18, 18));"/><path d="M 4.8 23.76 C 4.8 23.76 8.99 34.35 13.71 23.76 C 18.96 13.18 22.63 23.76 22.63 23.76 C 22.63 23.76 26.83 34.35 32.07 23.76 C 36.79 13.18 40.99 23.76 40.99 23.76 C 40.99 23.76 45.17 34.35 49.89 23.76 C 54.61 13.18 58.81 23.76 58.81 23.76" fill="none" stroke="#ffffff" stroke-width="2.09" stroke-linejoin="round" stroke-linecap="round" stroke-miterlimit="10" pointer-events="all" style="stroke: light-dark(rgb(255, 255, 255), rgb(18, 18, 18));"/><path d="M 59.87 44.41 C 59.87 44.41 55.67 55 50.95 44.41 C 45.71 33.29 42.03 44.41 42.03 44.41 C 42.03 44.41 37.84 55 32.59 44.41 C 27.87 33.29 23.68 44.41 23.68 44.41 C 23.68 44.41 19.48 55 14.76 44.41 C 10.04 33.29 5.84 44.41 5.84 44.41" fill="none" stroke="#000000" stroke-width="1.05" stroke-linejoin="round" stroke-linecap="round" stroke-miterlimit="10" pointer-events="all" style="stroke: light-dark(rgb(0, 0, 0), rgb(237, 237, 237));"/><path d="M 5.84 44.41 C 5.84 44.41 10.04 55 14.76 44.41 C 19.48 33.29 23.68 44.41 23.68 44.41 C 23.68 44.41 27.87 55 32.59 44.41 C 37.84 33.29 42.03 44.41 42.03 44.41 C 42.03 44.41 45.71 55 50.95 44.41 C 55.67 33.29 59.87 44.41 59.87 44.41" fill="none" stroke="#000000" stroke-width="2.09" stroke-linejoin="round" stroke-linecap="round" stroke-miterlimit="10" pointer-events="all" style="stroke: light-dark(rgb(0, 0, 0), rgb(237, 237, 237));"/><path d="M 58.81 44.41 C 58.81 44.41 54.61 55 49.89 44.41 C 45.17 33.29 40.99 44.41 40.99 44.41 C 40.99 44.41 36.79 55 32.07 44.41 C 26.83 33.29 22.63 44.41 22.63 44.41 C 22.63 44.41 18.96 55 13.71 44.41 C 8.99 33.29 4.8 44.41 4.8 44.41" fill="none" stroke="#ffffff" stroke-width="1.05" stroke-linejoin="round" stroke-linecap="round" stroke-miterlimit="10" pointer-events="all" style="stroke: light-dark(rgb(255, 255, 255), rgb(18, 18, 18));"/><path d="M 4.8 44.41 C 4.8 44.41 8.99 55 13.71 44.41 C 18.96 33.29 22.63 44.41 22.63 44.41 C 22.63 44.41 26.83 55 32.07 44.41 C 36.79 33.29 40.99 44.41 40.99 44.41 C 40.99 44.41 45.17 55 49.89 44.41 C 54.61 33.29 58.81 44.41 58.81 44.41" fill="none" stroke="#ffffff" stroke-width="2.09" stroke-linejoin="round" stroke-linecap="round" stroke-miterlimit="10" pointer-events="all" style="stroke: light-dark(rgb(255, 255, 255), rgb(18, 18, 18));"/></g></g></g></g></g></svg>