<?xml version="1.0" encoding="UTF-8"?>
<!DOCTYPE svg PUBLIC "-//W3C//DTD SVG 1.1//EN" "http://www.w3.org/Graphics/SVG/1.1/DTD/svg11.dtd">
<svg xmlns="http://www.w3.org/2000/svg" style="background: transparent; background-color: transparent; color-scheme: light dark;" xmlns:xlink="http://www.w3.org/1999/xlink" version="1.1" width="54px" height="72px" viewBox="0 0 54 72"><defs/><g><g data-cell-id="0"><g data-cell-id="1"><g data-cell-id="Mdee9xLFCV9MJBnmo9In-98"/><g data-cell-id="Mdee9xLFCV9MJBnmo9In-99"/><g data-cell-id="Mdee9xLFCV9MJBnmo9In-100"/><g data-cell-id="Mdee9xLFCV9MJBnmo9In-101"/><g data-cell-id="Mdee9xLFCV9MJBnmo9In-102"/><g data-cell-id="Mdee9xLFCV9MJBnmo9In-103"/><g data-cell-id="Mdee9xLFCV9MJBnmo9In-104"/><g data-cell-id="Mdee9xLFCV9MJBnmo9In-105"/><g data-cell-id="Mdee9xLFCV9MJBnmo9In-106"/><g data-cell-id="Mdee9xLFCV9MJBnmo9In-107"/><g data-cell-id="Mdee9xLFCV9MJBnmo9In-108"/><g data-cell-id="Mdee9xLFCV9MJBnmo9In-109"/><g data-cell-id="Mdee9xLFCV9MJBnmo9In-110"/><g data-cell-id="Mdee9xLFCV9MJBnmo9In-111"/><g data-cell-id="Mdee9xLFCV9MJBnmo9In-112"/><g data-cell-id="Mdee9xLFCV9MJBnmo9In-113"/><g data-cell-id="Mdee9xLFCV9MJBnmo9In-114"/><g data-cell-id="Mdee9xLFCV9MJBnmo9In-115"/><g data-cell-id="Mdee9xLFCV9MJBnmo9In-116"/><g data-cell-id="Mdee9xLFCV9MJBnmo9In-117"/><g data-cell-id="Mdee9xLFCV9MJBnmo9In-118"/><g data-cell-id="Mdee9xLFCV9MJBnmo9In-119"/><g data-cell-id="Mdee9xLFCV9MJBnmo9In-120"/><g data-cell-id="Mdee9xLFCV9MJBnmo9In-121"/><g data-cell-id="Mdee9xLFCV9MJBnmo9In-122"/><g data-cell-id="Mdee9xLFCV9MJBnmo9In-123"/><g data-cell-id="Mdee9xLFCV9MJBnmo9In-124"/><g data-cell-id="Mdee9xLFCV9MJBnmo9In-125"/><g data-cell-id="Mdee9xLFCV9MJBnmo9In-126"/><g data-cell-id="Mdee9xLFCV9MJBnmo9In-127"/><g data-cell-id="Mdee9xLFCV9MJBnmo9In-128"/><g data-cell-id="Mdee9xLFCV9MJBnmo9In-129"/><g data-cell-id="Mdee9xLFCV9MJBnmo9In-130"/><g data-cell-id="Mdee9xLFCV9MJBnmo9In-132"/><g data-cell-id="Mdee9xLFCV9MJBnmo9In-133"/><g data-cell-id="Mdee9xLFCV9MJBnmo9In-134"/><g data-cell-id="Mdee9xLFCV9MJBnmo9In-135"/><g data-cell-id="Mdee9xLFCV9MJBnmo9In-136"/><g data-cell-id="Mdee9xLFCV9MJBnmo9In-137"><g><rect x="0.8" y="0.8" width="51" height="70" fill="none" stroke="none" pointer-events="all"/><path d="M 22.59 20.64 L 11.43 3.93 L 14.09 0.8 L 25.77 17.51 Z M 11.43 70.8 L 22.59 54.09 L 22.59 20.64 L 11.43 3.93 L 11.43 70.8 Z M 39.05 54.09 L 39.05 20.64 L 42.24 17.51 L 42.24 50.96 Z M 39.05 20.64 L 22.59 20.64 L 25.77 17.51 L 42.24 17.51 Z M 22.59 20.64 L 22.59 54.09 L 39.05 54.09 L 39.05 20.64 L 22.59 20.64 Z" fill="#036897" stroke="#ffffff" stroke-width="2" stroke-linejoin="round" stroke-miterlimit="10" pointer-events="all" style="fill: light-dark(rgb(3, 104, 151), rgb(92, 179, 220)); stroke: light-dark(rgb(255, 255, 255), rgb(18, 18, 18));"/><path d="M 22.06 35.28 L 11.43 17.51 M 22.06 35.28 L 11.43 28.48 M 22.06 35.8 L 11.43 53.56 M 22.06 35.8 L 11.43 42.59 M 22.06 35.28 L 11.43 35.28" fill="none" stroke="#ffffff" stroke-width="0.63" stroke-linejoin="round" stroke-linecap="round" stroke-miterlimit="10" pointer-events="all" style="stroke: light-dark(rgb(255, 255, 255), rgb(18, 18, 18));"/><path d="M 11.43 17.51 L 0.8 17.51 M 11.43 28.48 L 0.8 28.48 M 11.43 35.8 L 0.8 35.8 M 11.43 42.07 L 0.8 42.07 M 11.43 53.56 L 0.8 53.56" fill="none" stroke="#036c9b" stroke-width="1.05" stroke-linejoin="round" stroke-linecap="round" stroke-miterlimit="10" pointer-events="all" style="stroke: light-dark(rgb(3, 108, 155), rgb(86, 177, 217));"/><path d="M 51.8 35.8 L 40.64 35.8" fill="none" stroke="#036c9b" stroke-width="3.65" stroke-linejoin="round" stroke-miterlimit="10" pointer-events="all" style="stroke: light-dark(rgb(3, 108, 155), rgb(86, 177, 217));"/></g></g></g></g></g></svg>