<?xml version="1.0" encoding="UTF-8"?>
<!DOCTYPE svg PUBLIC "-//W3C//DTD SVG 1.1//EN" "http://www.w3.org/Graphics/SVG/1.1/DTD/svg11.dtd">
<svg xmlns="http://www.w3.org/2000/svg" style="background: transparent; background-color: transparent; color-scheme: light dark;" xmlns:xlink="http://www.w3.org/1999/xlink" version="1.1" width="77px" height="102px" viewBox="0 0 77 102"><defs/><g><g data-cell-id="0"><g data-cell-id="1"><g data-cell-id="Mdee9xLFCV9MJBnmo9In-98"/><g data-cell-id="Mdee9xLFCV9MJBnmo9In-99"/><g data-cell-id="Mdee9xLFCV9MJBnmo9In-100"/><g data-cell-id="Mdee9xLFCV9MJBnmo9In-101"/><g data-cell-id="Mdee9xLFCV9MJBnmo9In-102"/><g data-cell-id="Mdee9xLFCV9MJBnmo9In-103"/><g data-cell-id="Mdee9xLFCV9MJBnmo9In-104"/><g data-cell-id="Mdee9xLFCV9MJBnmo9In-105"/><g data-cell-id="Mdee9xLFCV9MJBnmo9In-106"/><g data-cell-id="Mdee9xLFCV9MJBnmo9In-107"/><g data-cell-id="Mdee9xLFCV9MJBnmo9In-108"/><g data-cell-id="Mdee9xLFCV9MJBnmo9In-109"/><g data-cell-id="Mdee9xLFCV9MJBnmo9In-110"/><g data-cell-id="Mdee9xLFCV9MJBnmo9In-111"/><g data-cell-id="Mdee9xLFCV9MJBnmo9In-112"/><g data-cell-id="Mdee9xLFCV9MJBnmo9In-113"/><g data-cell-id="Mdee9xLFCV9MJBnmo9In-114"/><g data-cell-id="Mdee9xLFCV9MJBnmo9In-115"/><g data-cell-id="Mdee9xLFCV9MJBnmo9In-116"/><g data-cell-id="Mdee9xLFCV9MJBnmo9In-117"/><g data-cell-id="Mdee9xLFCV9MJBnmo9In-118"/><g data-cell-id="Mdee9xLFCV9MJBnmo9In-119"/><g data-cell-id="Mdee9xLFCV9MJBnmo9In-120"/><g data-cell-id="Mdee9xLFCV9MJBnmo9In-121"/><g data-cell-id="Mdee9xLFCV9MJBnmo9In-122"/><g data-cell-id="Mdee9xLFCV9MJBnmo9In-123"/><g data-cell-id="Mdee9xLFCV9MJBnmo9In-124"/><g data-cell-id="Mdee9xLFCV9MJBnmo9In-125"/><g data-cell-id="Mdee9xLFCV9MJBnmo9In-126"/><g data-cell-id="Mdee9xLFCV9MJBnmo9In-127"/><g data-cell-id="Mdee9xLFCV9MJBnmo9In-128"/><g data-cell-id="Mdee9xLFCV9MJBnmo9In-129"/><g data-cell-id="Mdee9xLFCV9MJBnmo9In-130"/><g data-cell-id="Mdee9xLFCV9MJBnmo9In-132"/><g data-cell-id="Mdee9xLFCV9MJBnmo9In-133"/><g data-cell-id="Mdee9xLFCV9MJBnmo9In-134"/><g data-cell-id="Mdee9xLFCV9MJBnmo9In-135"/><g data-cell-id="Mdee9xLFCV9MJBnmo9In-136"/><g data-cell-id="Mdee9xLFCV9MJBnmo9In-137"/><g data-cell-id="Mdee9xLFCV9MJBnmo9In-138"/><g data-cell-id="Mdee9xLFCV9MJBnmo9In-139"/><g data-cell-id="Mdee9xLFCV9MJBnmo9In-140"/><g data-cell-id="Mdee9xLFCV9MJBnmo9In-141"/><g data-cell-id="Mdee9xLFCV9MJBnmo9In-142"/><g data-cell-id="Mdee9xLFCV9MJBnmo9In-143"/><g data-cell-id="Mdee9xLFCV9MJBnmo9In-144"/><g data-cell-id="Mdee9xLFCV9MJBnmo9In-145"/><g data-cell-id="Mdee9xLFCV9MJBnmo9In-146"/><g data-cell-id="Mdee9xLFCV9MJBnmo9In-147"/><g data-cell-id="Mdee9xLFCV9MJBnmo9In-148"/><g data-cell-id="Mdee9xLFCV9MJBnmo9In-149"/><g data-cell-id="Mdee9xLFCV9MJBnmo9In-150"/><g data-cell-id="Mdee9xLFCV9MJBnmo9In-151"/><g data-cell-id="Mdee9xLFCV9MJBnmo9In-152"><g transform="translate(0.5,0.5)"><rect x="1" y="0.8" width="74" height="99" fill="none" stroke="none" pointer-events="all"/><rect x="1" y="0.8" width="0" height="0" fill="none" stroke="#ffffff" stroke-width="1.58" pointer-events="all" style="stroke: light-dark(rgb(255, 255, 255), rgb(18, 18, 18));"/><ellipse cx="56.6" cy="20.41" rx="18.320775026910656" ry="18.186900958466452" fill="none" stroke="#000000" stroke-width="1.58" pointer-events="all" style="stroke: light-dark(rgb(0, 0, 0), rgb(237, 237, 237));"/><path d="M 56.6 38.76 C 66.76 38.76 75 30.58 75 20.49 C 75 10.4 66.76 2.22 56.6 2.22 M 56.6 5.54 C 64.78 5.54 71.42 12.13 71.42 20.25 C 71.42 28.37 64.78 34.96 56.6 34.96" fill="#3e98c4" stroke="#000000" stroke-width="1.58" stroke-linecap="round" stroke-miterlimit="10" pointer-events="all" style="fill: light-dark(rgb(62, 152, 196), rgb(56, 134, 171)); stroke: light-dark(rgb(0, 0, 0), rgb(237, 237, 237));"/><path d="M 37.16 55.36 C 32.77 51.09 31.42 44.6 33.75 38.95 C 36.07 33.3 41.61 29.61 47.76 29.61 C 53.91 29.61 59.44 33.3 61.77 38.95 C 64.09 44.6 62.74 51.09 58.35 55.36 L 58.35 58.84 L 54.85 61.69 L 54.85 65.17 L 51.66 68.01 L 54.69 71.81 L 54.69 74.65 C 53.15 75.12 52.09 76.53 52.09 78.13 C 52.09 79.73 53.15 81.15 54.69 81.61 L 54.69 83.83 L 50.71 87.31 L 53.89 90.63 L 53.73 93.95 L 47.36 99.8 L 41.15 96.32 L 42.26 61.69 Z" fill="#c0dae9" stroke="#000000" stroke-width="2.37" stroke-miterlimit="10" pointer-events="all" style="fill: light-dark(rgb(192, 218, 233), rgb(35, 57, 70)); stroke: light-dark(rgb(0, 0, 0), rgb(237, 237, 237));"/><path d="M 54.21 62.32 L 48.79 62 L 46.24 62" fill="none" stroke="#000000" stroke-width="1.58" stroke-miterlimit="10" pointer-events="all" style="stroke: light-dark(rgb(0, 0, 0), rgb(237, 237, 237));"/><path d="M 46.24 62 L 44.49 97.43 L 47.2 99.17 L 49.11 62 Z" fill="#3a99c5" stroke="#000000" stroke-width="1.58" stroke-miterlimit="10" pointer-events="all" style="fill: light-dark(rgb(58, 153, 197), rgb(54, 135, 173)); stroke: light-dark(rgb(0, 0, 0), rgb(237, 237, 237));"/><path d="M 43.22 31.01 C 44.84 29.23 47.29 28.44 49.66 28.95 C 52.02 29.45 53.94 31.17 54.68 33.45 C 55.42 35.74 54.88 38.24 53.25 40.02 L 57.87 48.24 L 48.95 57.73 L 42.58 55.84 L 40.51 58.21 L 36.37 58.21 L 33.34 60.58 L 29.52 60.58 L 29.84 64.69 L 27.6 67.22 C 26.29 66.04 24.25 66.15 23.06 67.46 C 21.88 68.77 21.98 70.79 23.3 71.97 L 20.6 74.5 L 16.77 74.34 L 16.77 78.61 L 14.22 81.3 L 5.46 81.61 L 2.91 74.97 L 26.81 49.51 L 26.65 45.08 L 28.88 42.87 L 26.17 36.22 L 35.25 26.89 Z" fill="#c0dae9" stroke="#000000" stroke-width="2.37" stroke-miterlimit="10" pointer-events="all" style="fill: light-dark(rgb(192, 218, 233), rgb(35, 57, 70)); stroke: light-dark(rgb(0, 0, 0), rgb(237, 237, 237));"/><path d="M 5.62 80.82 L 31.27 54.25 L 29.68 52.04 L 4.66 78.61 Z" fill="#3a9ac7" stroke="#000000" stroke-width="1.58" stroke-miterlimit="10" pointer-events="all" style="fill: light-dark(rgb(58, 154, 199), rgb(52, 134, 173)); stroke: light-dark(rgb(0, 0, 0), rgb(237, 237, 237));"/><path d="M 35.73 58.21 L 31.59 54.57" fill="none" stroke="#000000" stroke-width="1.58" stroke-miterlimit="10" pointer-events="all" style="stroke: light-dark(rgb(0, 0, 0), rgb(237, 237, 237));"/><path d="M 46.5 33.13" fill="none" stroke="#000000" stroke-width="1.58" stroke-miterlimit="10" pointer-events="all" style="stroke: light-dark(rgb(0, 0, 0), rgb(237, 237, 237));"/><ellipse cx="48.47" cy="35.43" rx="2.867599569429494" ry="2.846645367412141" fill="#000000" stroke="none" pointer-events="all" style="fill: light-dark(rgb(0, 0, 0), rgb(237, 237, 237));"/><path d="M 58.35 5.7 C 51.14 4.87 44.35 9.24 42.17 16.12 C 39.99 22.99 43.04 30.43 49.43 33.85 C 49.86 34.25 50.04 34.84 49.91 35.4 C 49.78 35.97 49.35 36.42 48.79 36.59 C 48.23 36.76 47.63 36.62 47.2 36.22 C 39.56 31.93 36.07 22.85 38.87 14.59 C 41.68 6.33 50 1.21 58.7 2.38" fill="#399eca" stroke="#000000" stroke-width="1.58" stroke-linecap="round" stroke-miterlimit="10" pointer-events="all" style="fill: light-dark(rgb(57, 158, 202), rgb(46, 133, 171)); stroke: light-dark(rgb(0, 0, 0), rgb(237, 237, 237));"/></g></g></g></g></g></svg>