<?xml version="1.0" encoding="UTF-8"?>
<!DOCTYPE svg PUBLIC "-//W3C//DTD SVG 1.1//EN" "http://www.w3.org/Graphics/SVG/1.1/DTD/svg11.dtd">
<svg xmlns="http://www.w3.org/2000/svg" style="background: transparent; background-color: transparent; color-scheme: light dark;" xmlns:xlink="http://www.w3.org/1999/xlink" version="1.1" width="56px" height="56px" viewBox="0 0 56 56"><defs/><g><g data-cell-id="0"><g data-cell-id="1"><g data-cell-id="Mdee9xLFCV9MJBnmo9In-98"/><g data-cell-id="Mdee9xLFCV9MJBnmo9In-99"/><g data-cell-id="Mdee9xLFCV9MJBnmo9In-100"/><g data-cell-id="Mdee9xLFCV9MJBnmo9In-101"/><g data-cell-id="Mdee9xLFCV9MJBnmo9In-102"/><g data-cell-id="Mdee9xLFCV9MJBnmo9In-103"/><g data-cell-id="Mdee9xLFCV9MJBnmo9In-104"/><g data-cell-id="Mdee9xLFCV9MJBnmo9In-105"/><g data-cell-id="Mdee9xLFCV9MJBnmo9In-106"/><g data-cell-id="Mdee9xLFCV9MJBnmo9In-107"/><g data-cell-id="Mdee9xLFCV9MJBnmo9In-108"/><g data-cell-id="Mdee9xLFCV9MJBnmo9In-109"/><g data-cell-id="Mdee9xLFCV9MJBnmo9In-110"/><g data-cell-id="Mdee9xLFCV9MJBnmo9In-111"/><g data-cell-id="Mdee9xLFCV9MJBnmo9In-112"/><g data-cell-id="Mdee9xLFCV9MJBnmo9In-113"/><g data-cell-id="Mdee9xLFCV9MJBnmo9In-114"/><g data-cell-id="Mdee9xLFCV9MJBnmo9In-115"/><g data-cell-id="Mdee9xLFCV9MJBnmo9In-116"/><g data-cell-id="Mdee9xLFCV9MJBnmo9In-117"/><g data-cell-id="Mdee9xLFCV9MJBnmo9In-118"/><g data-cell-id="Mdee9xLFCV9MJBnmo9In-119"/><g data-cell-id="Mdee9xLFCV9MJBnmo9In-120"/><g data-cell-id="Mdee9xLFCV9MJBnmo9In-121"/><g data-cell-id="Mdee9xLFCV9MJBnmo9In-122"/><g data-cell-id="Mdee9xLFCV9MJBnmo9In-123"/><g data-cell-id="Mdee9xLFCV9MJBnmo9In-124"/><g data-cell-id="Mdee9xLFCV9MJBnmo9In-125"/><g data-cell-id="Mdee9xLFCV9MJBnmo9In-126"/><g data-cell-id="Mdee9xLFCV9MJBnmo9In-127"/><g data-cell-id="Mdee9xLFCV9MJBnmo9In-128"/><g data-cell-id="Mdee9xLFCV9MJBnmo9In-129"/><g data-cell-id="Mdee9xLFCV9MJBnmo9In-130"/><g data-cell-id="Mdee9xLFCV9MJBnmo9In-132"/><g data-cell-id="Mdee9xLFCV9MJBnmo9In-133"/><g data-cell-id="Mdee9xLFCV9MJBnmo9In-134"/><g data-cell-id="Mdee9xLFCV9MJBnmo9In-135"/><g data-cell-id="Mdee9xLFCV9MJBnmo9In-136"/><g data-cell-id="Mdee9xLFCV9MJBnmo9In-137"/><g data-cell-id="Mdee9xLFCV9MJBnmo9In-138"/><g data-cell-id="Mdee9xLFCV9MJBnmo9In-139"/><g data-cell-id="Mdee9xLFCV9MJBnmo9In-140"/><g data-cell-id="Mdee9xLFCV9MJBnmo9In-141"/><g data-cell-id="Mdee9xLFCV9MJBnmo9In-142"/><g data-cell-id="Mdee9xLFCV9MJBnmo9In-143"/><g data-cell-id="Mdee9xLFCV9MJBnmo9In-144"/><g data-cell-id="Mdee9xLFCV9MJBnmo9In-145"/><g data-cell-id="Mdee9xLFCV9MJBnmo9In-146"/><g data-cell-id="Mdee9xLFCV9MJBnmo9In-147"/><g data-cell-id="Mdee9xLFCV9MJBnmo9In-148"/><g data-cell-id="Mdee9xLFCV9MJBnmo9In-149"/><g data-cell-id="Mdee9xLFCV9MJBnmo9In-150"/><g data-cell-id="Mdee9xLFCV9MJBnmo9In-151"/><g data-cell-id="Mdee9xLFCV9MJBnmo9In-152"/><g data-cell-id="Mdee9xLFCV9MJBnmo9In-153"/><g data-cell-id="Mdee9xLFCV9MJBnmo9In-154"/><g data-cell-id="Mdee9xLFCV9MJBnmo9In-155"/><g data-cell-id="Mdee9xLFCV9MJBnmo9In-156"/><g data-cell-id="Mdee9xLFCV9MJBnmo9In-157"/><g data-cell-id="Mdee9xLFCV9MJBnmo9In-158"/><g data-cell-id="Mdee9xLFCV9MJBnmo9In-159"/><g data-cell-id="Mdee9xLFCV9MJBnmo9In-160"/><g data-cell-id="Mdee9xLFCV9MJBnmo9In-161"/><g data-cell-id="Mdee9xLFCV9MJBnmo9In-162"/><g data-cell-id="Mdee9xLFCV9MJBnmo9In-163"/><g data-cell-id="Mdee9xLFCV9MJBnmo9In-164"/><g data-cell-id="Mdee9xLFCV9MJBnmo9In-165"/><g data-cell-id="Mdee9xLFCV9MJBnmo9In-166"/><g data-cell-id="Mdee9xLFCV9MJBnmo9In-167"/><g data-cell-id="Mdee9xLFCV9MJBnmo9In-168"/><g data-cell-id="Mdee9xLFCV9MJBnmo9In-169"/><g data-cell-id="Mdee9xLFCV9MJBnmo9In-170"/><g data-cell-id="Mdee9xLFCV9MJBnmo9In-171"/><g data-cell-id="Mdee9xLFCV9MJBnmo9In-172"/><g data-cell-id="Mdee9xLFCV9MJBnmo9In-173"/><g data-cell-id="Mdee9xLFCV9MJBnmo9In-174"/><g data-cell-id="Mdee9xLFCV9MJBnmo9In-175"/><g data-cell-id="Mdee9xLFCV9MJBnmo9In-176"/><g data-cell-id="Mdee9xLFCV9MJBnmo9In-177"/><g data-cell-id="Mdee9xLFCV9MJBnmo9In-178"/><g data-cell-id="Mdee9xLFCV9MJBnmo9In-179"/><g data-cell-id="Mdee9xLFCV9MJBnmo9In-180"/><g data-cell-id="Mdee9xLFCV9MJBnmo9In-181"/><g data-cell-id="Mdee9xLFCV9MJBnmo9In-186"/><g data-cell-id="Mdee9xLFCV9MJBnmo9In-182"/><g data-cell-id="Mdee9xLFCV9MJBnmo9In-183"/><g data-cell-id="Mdee9xLFCV9MJBnmo9In-184"/><g data-cell-id="Mdee9xLFCV9MJBnmo9In-185"/><g data-cell-id="Mdee9xLFCV9MJBnmo9In-187"/><g data-cell-id="Mdee9xLFCV9MJBnmo9In-188"/><g data-cell-id="Mdee9xLFCV9MJBnmo9In-189"/><g data-cell-id="Mdee9xLFCV9MJBnmo9In-190"/><g data-cell-id="Mdee9xLFCV9MJBnmo9In-191"/><g data-cell-id="Mdee9xLFCV9MJBnmo9In-192"/><g data-cell-id="Mdee9xLFCV9MJBnmo9In-193"/><g data-cell-id="Mdee9xLFCV9MJBnmo9In-194"/><g data-cell-id="Mdee9xLFCV9MJBnmo9In-195"/><g data-cell-id="Mdee9xLFCV9MJBnmo9In-196"/><g data-cell-id="Mdee9xLFCV9MJBnmo9In-197"/><g data-cell-id="Mdee9xLFCV9MJBnmo9In-198"/><g data-cell-id="Mdee9xLFCV9MJBnmo9In-199"/><g data-cell-id="Mdee9xLFCV9MJBnmo9In-200"/><g data-cell-id="Mdee9xLFCV9MJBnmo9In-201"/><g data-cell-id="Mdee9xLFCV9MJBnmo9In-202"/><g data-cell-id="Mdee9xLFCV9MJBnmo9In-203"/><g data-cell-id="Mdee9xLFCV9MJBnmo9In-204"/><g data-cell-id="Mdee9xLFCV9MJBnmo9In-205"/><g data-cell-id="Mdee9xLFCV9MJBnmo9In-206"/><g data-cell-id="Mdee9xLFCV9MJBnmo9In-207"/><g data-cell-id="Mdee9xLFCV9MJBnmo9In-208"/><g data-cell-id="Mdee9xLFCV9MJBnmo9In-209"/><g data-cell-id="Mdee9xLFCV9MJBnmo9In-210"/><g data-cell-id="Mdee9xLFCV9MJBnmo9In-211"/><g data-cell-id="Mdee9xLFCV9MJBnmo9In-212"/><g data-cell-id="Mdee9xLFCV9MJBnmo9In-213"><g><rect x="0.6" y="0.8" width="53" height="53" fill="none" stroke="none" pointer-events="all"/><path d="M 53.6 37.37 L 48.36 45.32 L 0.6 45.32 L 8.47 37.37 L 53.6 37.37 Z" fill="#036897" stroke="#ffffff" stroke-width="2" stroke-linejoin="round" stroke-miterlimit="10" pointer-events="all" style="fill: light-dark(rgb(3, 104, 151), rgb(92, 179, 220)); stroke: light-dark(rgb(255, 255, 255), rgb(18, 18, 18));"/><path d="M 0.6 53.8 L 0.6 45.32 L 46.25 45.32 L 46.25 53.8 Z" fill="#036897" stroke="#ffffff" stroke-width="2" stroke-linejoin="round" stroke-miterlimit="10" pointer-events="all" style="fill: light-dark(rgb(3, 104, 151), rgb(92, 179, 220)); stroke: light-dark(rgb(255, 255, 255), rgb(18, 18, 18));"/><path d="M 0.6 8.75 L 45.73 8.75 L 45.73 43.21 L 0.6 43.21 Z" fill="#036897" stroke="#ffffff" stroke-width="2" stroke-linejoin="round" stroke-miterlimit="10" pointer-events="all" style="fill: light-dark(rgb(3, 104, 151), rgb(92, 179, 220)); stroke: light-dark(rgb(255, 255, 255), rgb(18, 18, 18));"/><path d="M 45.73 43.21 L 53.6 35.26 L 53.6 0.8 L 45.73 8.75 Z" fill="#036897" stroke="#ffffff" stroke-width="2" stroke-linejoin="round" stroke-miterlimit="10" pointer-events="all" style="fill: light-dark(rgb(3, 104, 151), rgb(92, 179, 220)); stroke: light-dark(rgb(255, 255, 255), rgb(18, 18, 18));"/><path d="M 46.25 53.8 L 46.25 45.32 L 53.6 37.37 L 53.6 45.85 Z" fill="#036897" stroke="#ffffff" stroke-width="2" stroke-linejoin="round" stroke-miterlimit="10" pointer-events="all" style="fill: light-dark(rgb(3, 104, 151), rgb(92, 179, 220)); stroke: light-dark(rgb(255, 255, 255), rgb(18, 18, 18));"/><path d="M 7.95 12.46 C 38.38 12.46 38.38 12.46 38.38 12.46 C 40.49 12.46 42.06 14.05 42.06 16.18 C 42.06 35.78 42.06 35.78 42.06 35.78 C 42.06 37.37 40.49 38.96 38.38 38.96 C 7.95 38.96 7.95 38.96 7.95 38.96 C 5.86 38.96 4.28 37.37 4.28 35.78 C 4.28 16.18 4.28 16.18 4.28 16.18 C 4.28 14.05 5.86 12.46 7.95 12.46 Z" fill="#ffffff" stroke="#ffffff" stroke-width="2" stroke-linejoin="round" stroke-miterlimit="10" pointer-events="all" style="fill: light-dark(rgb(255, 255, 255), rgb(18, 18, 18)); stroke: light-dark(rgb(255, 255, 255), rgb(18, 18, 18));"/><rect x="0.6" y="0.8" width="0" height="0" fill="none" stroke="#ffffff" stroke-width="2" pointer-events="all" style="stroke: light-dark(rgb(255, 255, 255), rgb(18, 18, 18));"/><path d="M 53.6 0.8 L 9.53 0.8 L 0.6 8.75 L 45.73 8.75 Z" fill="#036897" stroke="#ffffff" stroke-width="2" stroke-linejoin="round" stroke-miterlimit="10" pointer-events="all" style="fill: light-dark(rgb(3, 104, 151), rgb(92, 179, 220)); stroke: light-dark(rgb(255, 255, 255), rgb(18, 18, 18));"/><path d="M 8.47 49.57 C 8.47 51.16 7.43 52.21 5.86 52.21 C 4.28 52.21 3.23 51.16 3.23 49.57 C 3.23 47.98 4.28 46.91 5.86 46.91 C 7.43 46.91 8.47 47.98 8.47 49.57 Z" fill="#036897" stroke="#ffffff" stroke-width="2" stroke-linejoin="round" stroke-miterlimit="10" pointer-events="all" style="fill: light-dark(rgb(3, 104, 151), rgb(92, 179, 220)); stroke: light-dark(rgb(255, 255, 255), rgb(18, 18, 18));"/><path d="M 44.16 49.57 C 44.16 51.16 42.58 52.21 41.01 52.21 C 39.95 52.21 38.38 51.16 38.38 49.57 C 38.38 47.98 39.95 46.91 41.01 46.91 C 42.58 46.91 44.16 47.98 44.16 49.57 Z" fill="#036897" stroke="#ffffff" stroke-width="2" stroke-linejoin="round" stroke-miterlimit="10" pointer-events="all" style="fill: light-dark(rgb(3, 104, 151), rgb(92, 179, 220)); stroke: light-dark(rgb(255, 255, 255), rgb(18, 18, 18));"/><path d="M 18.45 50.09 C 18.45 51.16 17.92 51.69 17.4 51.69 C 16.34 51.69 15.82 51.16 15.82 50.09 C 15.82 49.57 16.34 49.03 17.4 49.03 C 17.92 49.03 18.45 49.57 18.45 50.09 Z" fill="#036897" stroke="#ffffff" stroke-width="2" stroke-linejoin="round" stroke-miterlimit="10" pointer-events="all" style="fill: light-dark(rgb(3, 104, 151), rgb(92, 179, 220)); stroke: light-dark(rgb(255, 255, 255), rgb(18, 18, 18));"/><path d="M 24.21 50.09 C 24.21 51.16 23.69 51.69 22.64 51.69 C 22.12 51.69 21.6 51.16 21.6 50.09 C 21.6 49.57 22.12 49.03 22.64 49.03 C 23.69 49.03 24.21 49.57 24.21 50.09 Z" fill="#036897" stroke="#ffffff" stroke-width="2" stroke-linejoin="round" stroke-miterlimit="10" pointer-events="all" style="fill: light-dark(rgb(3, 104, 151), rgb(92, 179, 220)); stroke: light-dark(rgb(255, 255, 255), rgb(18, 18, 18));"/><path d="M 29.47 50.09 C 29.47 51.16 28.93 51.69 28.41 51.69 C 27.36 51.69 26.84 51.16 26.84 50.09 C 26.84 49.57 27.36 49.03 28.41 49.03 C 28.93 49.03 29.47 49.57 29.47 50.09 Z" fill="#036897" stroke="#ffffff" stroke-width="2" stroke-linejoin="round" stroke-miterlimit="10" pointer-events="all" style="fill: light-dark(rgb(3, 104, 151), rgb(92, 179, 220)); stroke: light-dark(rgb(255, 255, 255), rgb(18, 18, 18));"/><path d="M 15.82 16.18 C 16.34 16.7 16.34 16.7 16.34 17.23 C 16.34 17.77 16.34 18.82 15.82 19.88 C 15.82 20.41 15.82 20.95 15.3 20.41 C 15.3 20.41 14.77 19.88 14.25 19.88 C 14.25 19.88 13.73 19.88 13.19 20.41 C 13.73 21.47 14.77 22.54 14.25 24.13 C 13.19 22.54 12.15 20.95 11.62 19.36 C 11.1 18.29 11.62 17.23 12.15 16.18 C 12.67 15.11 13.73 14.05 15.3 14.05 C 17.4 13.52 18.97 13 21.06 13 C 19.49 14.05 17.4 14.59 15.82 15.64 C 15.82 16.18 15.82 16.18 15.82 16.18 Z" fill="#036897" stroke="none" pointer-events="all" style="fill: light-dark(rgb(3, 104, 151), rgb(92, 179, 220));"/><path d="M 22.64 16.18 C 22.12 17.23 21.6 18.29 21.06 18.82 C 21.06 18.82 21.06 18.82 21.06 18.82 C 21.06 18.82 20.54 18.82 20.54 18.82 C 20.54 18.29 20.54 18.29 20.54 17.77 C 20.54 17.77 21.06 17.77 21.06 17.77 C 22.12 16.7 20.54 15.64 20.02 14.05 C 21.06 14.05 22.12 15.11 23.17 15.11 C 23.17 15.64 22.64 16.18 22.64 16.18 Z" fill="#036897" stroke="none" pointer-events="all" style="fill: light-dark(rgb(3, 104, 151), rgb(92, 179, 220));"/><path d="M 17.92 18.82 C 17.92 18.82 17.4 18.82 17.4 18.82 C 16.88 17.77 18.45 18.29 19.49 17.77 C 18.97 18.29 18.97 18.82 17.92 18.82 Z" fill="#036897" stroke="none" pointer-events="all" style="fill: light-dark(rgb(3, 104, 151), rgb(92, 179, 220));"/><path d="M 20.02 20.95 C 20.02 20.95 19.49 20.95 19.49 20.95 C 19.49 20.95 20.02 20.41 20.54 20.41 C 20.54 20.95 20.54 20.95 20.54 20.95 C 20.54 20.95 20.54 20.95 20.02 20.95 Z" fill="#036897" stroke="none" pointer-events="all" style="fill: light-dark(rgb(3, 104, 151), rgb(92, 179, 220));"/><path d="M 20.02 22.54 C 19.49 22.54 18.97 22.54 18.45 22.54 C 18.45 22.54 18.97 22.54 18.97 22.54 C 19.49 22.54 20.02 22 20.54 22.54 C 20.54 22.54 20.02 22.54 20.02 22.54 Z" fill="#036897" stroke="none" pointer-events="all" style="fill: light-dark(rgb(3, 104, 151), rgb(92, 179, 220));"/><path d="M 20.02 23.06 C 20.02 23.59 19.49 23.59 19.49 23.59 C 19.49 23.59 19.49 23.06 18.97 23.06 C 19.49 23.06 19.49 23.06 20.02 23.06 Z" fill="#036897" stroke="none" pointer-events="all" style="fill: light-dark(rgb(3, 104, 151), rgb(92, 179, 220));"/><path d="M 28.41 35.26 C 28.41 34.72 28.93 33.67 28.93 32.6 C 28.93 32.08 29.47 31.01 29.47 31.01 C 28.93 29.95 27.89 29.42 27.36 29.42 C 25.27 28.36 23.17 27.83 20.54 26.77 C 20.54 26.77 20.54 26.77 20.54 26.77 C 21.06 32.08 21.06 32.08 21.06 32.08 C 18.97 38.44 18.97 38.44 18.97 38.44" fill="#036897" stroke="none" pointer-events="all" style="fill: light-dark(rgb(3, 104, 151), rgb(92, 179, 220));"/><path d="M 18.97 38.44 C 14.77 32.6 14.77 32.6 14.77 32.6 C 13.19 26.77 13.19 26.77 13.19 26.77 C 12.67 27.31 12.67 27.31 12.15 27.83 C 9.53 28.9 7.43 29.42 4.8 31.01 C 4.8 36.31 6.9 34.19 6.38 39.49" fill="#036897" stroke="none" pointer-events="all" style="fill: light-dark(rgb(3, 104, 151), rgb(92, 179, 220));"/><path d="M 18.45 38.96 C 21.06 32.08 21.06 32.08 21.06 32.08 C 20.54 26.77 20.54 26.77 20.54 26.77 C 19.49 26.24 19.49 26.24 19.49 26.24 C 18.45 28.36 18.45 28.36 18.45 28.36 C 14.25 25.18 14.25 25.18 14.25 25.18 C 14.25 25.72 13.19 26.77 13.19 26.77 C 14.77 32.6 14.77 32.6 14.77 32.6 C 18.97 38.44 18.97 38.44 18.97 38.44" fill="#ffffff" stroke="none" pointer-events="all" style="fill: light-dark(rgb(255, 255, 255), rgb(18, 18, 18));"/><path d="M 17.4 38.44 L 17.92 29.95 L 17.4 29.42 L 17.92 28.36 L 18.45 28.9 L 18.97 28.36 L 19.49 28.9 L 18.97 29.95 L 19.49 37.37 Z" fill="#036897" stroke="none" pointer-events="all" style="fill: light-dark(rgb(3, 104, 151), rgb(92, 179, 220));"/><path d="M 24.75 29.95 C 24.21 29.42 23.69 29.42 23.69 28.9 C 23.69 28.9 24.21 28.9 24.75 28.9 C 24.21 28.36 23.69 27.83 23.69 26.77 C 23.69 26.77 23.69 26.77 23.69 26.77 C 24.21 26.77 24.21 27.31 24.21 27.31 C 24.75 27.31 24.75 27.31 24.75 27.31 C 24.75 26.77 24.75 26.24 24.75 26.24 C 24.75 26.24 25.79 26.24 25.79 25.72 C 25.79 25.18 24.75 24.65 25.27 24.13 C 25.79 24.13 26.32 24.65 26.32 24.13 C 26.32 23.59 25.79 23.06 25.79 23.06 C 25.79 22.54 26.32 22.54 26.32 22 C 26.84 21.47 26.32 20.95 26.32 20.41 C 26.84 18.82 27.89 17.23 28.41 15.64 C 30.51 15.64 31.04 14.05 34.19 15.64 C 34.19 15.64 33.66 15.64 34.19 15.64 C 34.19 15.64 34.19 15.64 34.19 16.18 C 34.71 16.18 35.23 15.64 35.77 16.18 C 35.77 16.7 35.23 17.23 35.23 17.23 C 35.23 17.77 36.28 17.77 36.28 18.29 C 36.8 18.82 35.77 19.88 35.77 20.41 C 35.77 20.95 36.8 20.95 37.34 21.47 C 37.34 22 36.8 23.06 37.34 23.59 C 37.86 23.06 37.86 23.06 38.38 22.54 C 38.38 23.06 38.38 23.59 38.91 24.13 C 38.91 23.59 39.43 23.59 39.95 23.06 C 39.95 23.06 39.95 23.59 39.95 23.59 C 39.43 24.13 38.91 24.65 37.86 25.18 C 37.86 25.18 37.86 25.18 37.86 25.18 C 36.8 24.65 36.8 24.65 36.8 24.65 C 36.8 25.18 37.86 25.18 37.34 25.18 C 37.34 25.72 37.34 25.72 37.34 25.72 C 37.86 26.24 38.38 26.24 38.91 25.72 C 38.91 26.77 37.86 26.77 37.86 27.31 C 37.86 27.83 38.38 27.83 38.91 27.83 C 38.91 28.36 38.38 28.36 37.86 28.9" fill="#036897" stroke="none" pointer-events="all" style="fill: light-dark(rgb(3, 104, 151), rgb(92, 179, 220));"/><path d="M 18.97 38.96 C 19.49 36.31 19.49 34.72 19.49 32.08 C 21.06 31.01 22.64 30.49 24.75 29.95 C 32.08 28.36 32.08 28.36 32.08 28.36 C 37.86 28.9 37.86 28.9 37.86 28.9 C 38.91 29.42 39.95 29.42 41.53 29.42 C 42.58 32.6 39.43 35.78 40.49 38.44 C 39.95 38.96 39.95 38.96 39.95 38.96" fill="#036897" stroke="none" pointer-events="all" style="fill: light-dark(rgb(3, 104, 151), rgb(92, 179, 220));"/><path d="M 34.71 32.08 C 34.71 32.08 34.71 31.54 34.71 31.54 C 34.71 31.54 34.19 31.54 34.71 31.54 C 34.71 31.01 34.71 31.01 34.71 31.01 C 34.71 31.54 35.23 31.54 35.23 31.54 C 35.23 30.49 35.23 29.95 35.23 28.9 C 34.71 28.36 34.19 28.36 34.19 28.36 C 33.66 27.83 33.66 26.24 34.19 26.24 C 35.23 26.24 35.23 23.59 35.77 22 C 35.77 21.47 35.77 21.47 35.23 20.41 C 35.23 20.95 35.23 20.95 35.23 20.95 C 34.71 20.95 34.71 21.47 34.19 20.95 C 34.19 20.95 34.19 20.41 34.19 20.41 C 34.71 20.41 35.23 19.88 35.23 19.88 C 35.77 19.36 35.23 18.82 34.71 18.29 C 34.71 18.82 34.19 18.82 34.19 18.82 C 34.19 18.29 34.19 17.77 33.66 17.77 C 33.14 18.29 33.66 19.36 32.62 19.36 C 32.62 18.82 32.62 18.29 32.62 18.29 C 32.08 18.82 31.56 18.82 31.56 18.82 C 31.04 18.82 31.04 18.29 31.04 18.29 C 30.51 18.82 31.04 19.36 31.04 19.88 C 30.51 20.95 30.51 22 29.99 23.06 C 29.99 23.59 29.99 23.59 29.99 24.13 C 29.99 24.13 30.51 24.13 30.51 24.13 C 30.51 24.65 29.99 24.65 29.99 24.65 C 29.99 24.65 29.99 25.18 29.99 25.18 C 30.51 25.72 30.51 25.72 31.04 25.72 C 31.04 26.24 29.99 26.24 29.47 26.24 C 29.47 26.77 29.99 27.31 30.51 27.83 C 30.51 28.36 29.99 27.83 29.47 27.83 C 28.93 28.36 29.47 28.9 29.47 29.42 C 29.47 29.42 28.93 29.42 28.93 29.42 C 28.93 29.95 28.93 30.49 29.47 31.01 C 29.47 31.01 29.47 31.01 29.47 31.01 C 29.99 31.01 29.99 31.54 29.99 31.54 C 29.47 31.54 29.47 31.54 29.47 31.54 C 28.93 31.54 29.47 32.08 29.47 32.08 C 30.51 32.6 32.08 33.13 33.14 33.13 C 33.66 33.13 34.19 32.6 34.19 32.6 C 34.19 32.08 33.14 32.6 33.66 32.08 C 33.66 31.54 34.19 31.54 34.19 31.54 C 34.19 32.08 34.19 32.08 34.19 32.6 C 34.19 32.6 34.19 32.6 34.71 32.6 C 34.71 32.08 35.23 32.08 35.23 31.54 C 35.23 31.54 35.23 31.54 35.23 31.54 C 34.71 31.54 35.23 32.08 34.71 32.08 Z" fill="#ffffff" stroke="none" pointer-events="all" style="fill: light-dark(rgb(255, 255, 255), rgb(18, 18, 18));"/><path d="M 33.14 20.95 C 33.14 21.47 33.14 21.47 33.14 21.47 C 32.62 21.47 32.08 21.47 31.56 20.95 C 32.08 20.41 33.14 20.41 33.66 20.95 C 33.66 20.95 33.14 20.95 33.14 20.95 Z" fill="#036897" stroke="none" pointer-events="all" style="fill: light-dark(rgb(3, 104, 151), rgb(92, 179, 220));"/><path d="M 34.71 23.06 C 34.71 23.06 34.19 23.06 33.66 23.06 C 34.19 22.54 34.19 22.54 34.71 22.54 C 34.71 22.54 34.71 22.54 34.71 23.06 Z" fill="#036897" stroke="none" pointer-events="all" style="fill: light-dark(rgb(3, 104, 151), rgb(92, 179, 220));"/><path d="M 34.19 24.13 C 34.19 24.13 33.66 24.13 33.14 24.13 C 33.66 23.59 34.71 24.13 35.23 23.59 C 35.23 23.59 35.23 24.13 35.23 24.13 C 34.71 24.13 34.71 24.13 34.19 24.13 Z" fill="#036897" stroke="none" pointer-events="all" style="fill: light-dark(rgb(3, 104, 151), rgb(92, 179, 220));"/><path d="M 33.14 32.6 C 33.14 33.13 32.62 32.6 32.62 32.08 C 32.62 32.08 33.14 32.08 33.14 32.08 C 33.14 32.08 33.66 32.6 33.14 32.6 Z" fill="#036897" stroke="none" pointer-events="all" style="fill: light-dark(rgb(3, 104, 151), rgb(92, 179, 220));"/><path d="M 32.08 32.6 C 32.08 32.6 32.08 32.6 31.56 32.6 C 31.56 32.6 31.56 32.08 32.08 32.08 C 32.08 32.08 32.08 32.08 32.62 32.08 C 32.62 32.6 32.08 32.6 32.08 32.6 Z" fill="#036897" stroke="none" pointer-events="all" style="fill: light-dark(rgb(3, 104, 151), rgb(92, 179, 220));"/><path d="M 31.04 32.6 C 31.04 32.6 31.04 32.6 31.04 32.08 C 30.51 32.08 30.51 32.08 31.04 31.54 C 31.04 31.54 31.56 32.08 31.56 32.08 C 31.56 32.08 31.04 32.6 31.04 32.6 Z" fill="#036897" stroke="none" pointer-events="all" style="fill: light-dark(rgb(3, 104, 151), rgb(92, 179, 220));"/><path d="M 30.51 32.08 C 30.51 32.08 29.99 32.08 29.99 31.54 C 29.99 31.54 30.51 31.01 30.51 31.54 C 30.51 31.54 30.51 31.54 30.51 32.08 Z" fill="#036897" stroke="none" pointer-events="all" style="fill: light-dark(rgb(3, 104, 151), rgb(92, 179, 220));"/><path d="M 34.19 24.65 C 34.19 24.65 34.19 24.65 33.66 24.65 C 34.19 24.65 34.71 24.13 34.71 24.13 C 34.71 24.65 34.71 24.65 34.19 24.65 Z" fill="#036897" stroke="none" pointer-events="all" style="fill: light-dark(rgb(3, 104, 151), rgb(92, 179, 220));"/><path d="M 39.95 38.96 L 6.9 38.96 L 6.9 37.37 L 39.95 37.37 L 39.95 38.96 Z" fill="#036897" stroke="none" pointer-events="all" style="fill: light-dark(rgb(3, 104, 151), rgb(92, 179, 220));"/></g></g></g></g></g></svg>