<?xml version="1.0" encoding="UTF-8"?>
<!DOCTYPE svg PUBLIC "-//W3C//DTD SVG 1.1//EN" "http://www.w3.org/Graphics/SVG/1.1/DTD/svg11.dtd">
<svg xmlns="http://www.w3.org/2000/svg" style="background: transparent; background-color: transparent; color-scheme: light dark;" xmlns:xlink="http://www.w3.org/1999/xlink" version="1.1" width="55px" height="96px" viewBox="0 0 55 96"><defs/><g><g data-cell-id="0"><g data-cell-id="1"><g data-cell-id="1c7a67bf8fd3230f-83"/><g data-cell-id="1c7a67bf8fd3230f-82"/><g data-cell-id="1c7a67bf8fd3230f-81"/><g data-cell-id="1c7a67bf8fd3230f-80"/><g data-cell-id="1c7a67bf8fd3230f-37"/><g data-cell-id="1c7a67bf8fd3230f-1"/><g data-cell-id="1c7a67bf8fd3230f-38"/><g data-cell-id="1c7a67bf8fd3230f-2"/><g data-cell-id="1c7a67bf8fd3230f-39"/><g data-cell-id="1c7a67bf8fd3230f-3"/><g data-cell-id="1c7a67bf8fd3230f-40"/><g data-cell-id="1c7a67bf8fd3230f-4"/><g data-cell-id="1c7a67bf8fd3230f-41"/><g data-cell-id="1c7a67bf8fd3230f-45"/><g data-cell-id="1c7a67bf8fd3230f-49"/><g data-cell-id="1c7a67bf8fd3230f-50"/><g data-cell-id="1c7a67bf8fd3230f-5"/><g data-cell-id="1c7a67bf8fd3230f-64"/><g data-cell-id="1c7a67bf8fd3230f-65"/><g data-cell-id="1c7a67bf8fd3230f-6"/><g data-cell-id="1c7a67bf8fd3230f-42"/><g data-cell-id="1c7a67bf8fd3230f-7"/><g data-cell-id="1c7a67bf8fd3230f-8"/><g data-cell-id="1c7a67bf8fd3230f-9"/><g data-cell-id="1c7a67bf8fd3230f-43"/><g data-cell-id="1c7a67bf8fd3230f-44"/><g data-cell-id="1c7a67bf8fd3230f-51"/><g data-cell-id="1c7a67bf8fd3230f-10"/><g data-cell-id="1c7a67bf8fd3230f-11"/><g data-cell-id="1c7a67bf8fd3230f-12"/><g data-cell-id="1c7a67bf8fd3230f-56"/><g data-cell-id="1c7a67bf8fd3230f-61"/><g data-cell-id="1c7a67bf8fd3230f-62"/><g data-cell-id="1c7a67bf8fd3230f-13"/><g data-cell-id="1c7a67bf8fd3230f-57"/><g data-cell-id="1c7a67bf8fd3230f-63"/><g data-cell-id="1c7a67bf8fd3230f-14"/><g data-cell-id="1c7a67bf8fd3230f-15"/><g data-cell-id="1c7a67bf8fd3230f-66"/><g data-cell-id="1c7a67bf8fd3230f-16"/><g data-cell-id="1c7a67bf8fd3230f-60"/><g data-cell-id="1c7a67bf8fd3230f-69"/><g data-cell-id="1c7a67bf8fd3230f-70"/><g data-cell-id="1c7a67bf8fd3230f-17"/><g data-cell-id="1c7a67bf8fd3230f-59"/><g data-cell-id="1c7a67bf8fd3230f-18"/><g data-cell-id="1c7a67bf8fd3230f-19"/><g data-cell-id="1c7a67bf8fd3230f-20"/><g data-cell-id="1c7a67bf8fd3230f-67"/><g data-cell-id="1c7a67bf8fd3230f-68"/><g data-cell-id="1c7a67bf8fd3230f-78"/><g data-cell-id="1c7a67bf8fd3230f-79"/><g data-cell-id="1c7a67bf8fd3230f-21"/><g data-cell-id="1c7a67bf8fd3230f-22"/><g data-cell-id="1c7a67bf8fd3230f-23"/><g data-cell-id="1c7a67bf8fd3230f-75"/><g data-cell-id="1c7a67bf8fd3230f-76"/><g data-cell-id="1c7a67bf8fd3230f-77"/><g data-cell-id="1c7a67bf8fd3230f-24"/><g data-cell-id="1c7a67bf8fd3230f-25"/><g data-cell-id="1c7a67bf8fd3230f-26"/><g data-cell-id="1c7a67bf8fd3230f-71"/><g data-cell-id="1c7a67bf8fd3230f-72"/><g data-cell-id="1c7a67bf8fd3230f-73"/><g data-cell-id="1c7a67bf8fd3230f-74"/><g data-cell-id="1c7a67bf8fd3230f-27"/><g data-cell-id="1c7a67bf8fd3230f-28"/><g data-cell-id="1c7a67bf8fd3230f-29"/><g data-cell-id="1c7a67bf8fd3230f-31"/><g data-cell-id="1c7a67bf8fd3230f-32"/><g data-cell-id="1c7a67bf8fd3230f-33"/><g data-cell-id="1c7a67bf8fd3230f-34"/><g data-cell-id="1c7a67bf8fd3230f-35"/><g data-cell-id="1c7a67bf8fd3230f-55"/><g data-cell-id="1c7a67bf8fd3230f-46"/><g data-cell-id="1c7a67bf8fd3230f-54"/><g data-cell-id="1c7a67bf8fd3230f-47"/><g data-cell-id="1c7a67bf8fd3230f-52"/><g data-cell-id="1c7a67bf8fd3230f-48"/><g data-cell-id="rjDXDZ_0ghjuIWEXEoUx-1"/><g data-cell-id="rjDXDZ_0ghjuIWEXEoUx-2"/><g data-cell-id="rjDXDZ_0ghjuIWEXEoUx-3"/><g data-cell-id="rjDXDZ_0ghjuIWEXEoUx-4"/><g data-cell-id="rjDXDZ_0ghjuIWEXEoUx-5"/><g data-cell-id="rjDXDZ_0ghjuIWEXEoUx-6"/><g data-cell-id="rjDXDZ_0ghjuIWEXEoUx-7"/><g data-cell-id="rjDXDZ_0ghjuIWEXEoUx-8"/><g data-cell-id="rjDXDZ_0ghjuIWEXEoUx-9"/><g data-cell-id="rjDXDZ_0ghjuIWEXEoUx-10"/><g data-cell-id="rjDXDZ_0ghjuIWEXEoUx-11"/><g data-cell-id="rjDXDZ_0ghjuIWEXEoUx-12"/><g data-cell-id="rjDXDZ_0ghjuIWEXEoUx-13"/><g data-cell-id="rjDXDZ_0ghjuIWEXEoUx-16"/><g data-cell-id="rjDXDZ_0ghjuIWEXEoUx-17"/><g data-cell-id="rjDXDZ_0ghjuIWEXEoUx-18"/><g data-cell-id="rjDXDZ_0ghjuIWEXEoUx-19"/><g data-cell-id="rjDXDZ_0ghjuIWEXEoUx-20"/><g data-cell-id="rjDXDZ_0ghjuIWEXEoUx-21"/><g data-cell-id="rjDXDZ_0ghjuIWEXEoUx-22"/><g data-cell-id="rjDXDZ_0ghjuIWEXEoUx-23"/><g data-cell-id="rjDXDZ_0ghjuIWEXEoUx-24"/><g data-cell-id="rjDXDZ_0ghjuIWEXEoUx-25"/><g data-cell-id="rjDXDZ_0ghjuIWEXEoUx-26"/><g data-cell-id="rjDXDZ_0ghjuIWEXEoUx-27"/><g data-cell-id="rjDXDZ_0ghjuIWEXEoUx-28"/><g data-cell-id="rjDXDZ_0ghjuIWEXEoUx-32"/><g data-cell-id="rjDXDZ_0ghjuIWEXEoUx-33"/><g data-cell-id="rjDXDZ_0ghjuIWEXEoUx-34"/><g data-cell-id="rjDXDZ_0ghjuIWEXEoUx-35"/><g data-cell-id="rjDXDZ_0ghjuIWEXEoUx-36"/><g data-cell-id="rjDXDZ_0ghjuIWEXEoUx-37"/><g data-cell-id="rjDXDZ_0ghjuIWEXEoUx-38"/><g data-cell-id="rjDXDZ_0ghjuIWEXEoUx-40"><g><rect x="1" y="1" width="53" height="94" fill="none" stroke="none" pointer-events="all"/><path d="M 15.31 39.56 C 11.07 40.6 1 44.31 1 49.58 C 1 49.58 1 49.58 1 49.58 C 1 54.86 11.61 59.09 15.84 60.15" fill="#036897" stroke="#ffffff" stroke-width="2" stroke-miterlimit="10" pointer-events="all" style="fill: light-dark(rgb(3, 104, 151), rgb(92, 179, 220)); stroke: light-dark(rgb(255, 255, 255), rgb(18, 18, 18));"/><path d="M 38.64 2.06 C 34.92 2.06 20.61 15.26 16.9 30.05 C 14.79 36.91 15.84 44.83 15.84 51.17 C 15.84 56.44 14.79 62.26 16.9 68.59 C 20.61 82.33 35.46 94.46 39.69 94.46" fill="#036897" stroke="#ffffff" stroke-width="2" stroke-miterlimit="10" pointer-events="all" style="fill: light-dark(rgb(3, 104, 151), rgb(92, 179, 220)); stroke: light-dark(rgb(255, 255, 255), rgb(18, 18, 18));"/><path d="M 40.75 95 C 48.18 95 54 73.87 54 48 C 54 22.13 48.18 1 40.75 1 C 33.33 1 27.51 22.13 27.51 48 C 27.51 73.87 33.33 95 40.75 95 Z" fill="#036897" stroke="#ffffff" stroke-width="2" stroke-miterlimit="10" pointer-events="all" style="fill: light-dark(rgb(3, 104, 151), rgb(92, 179, 220)); stroke: light-dark(rgb(255, 255, 255), rgb(18, 18, 18));"/><path d="M 51.89 41.66 C 51.89 39.56 49.23 38.5 46.59 38.5 C 46.59 38.5 46.59 38.5 46.59 38.5 C 43.41 38.5 41.28 36.39 41.28 39.56 C 41.28 58.57 41.28 58.57 41.28 58.57 C 41.28 61.73 43.93 59.09 46.59 59.09 C 46.59 59.09 46.59 59.09 46.59 59.09 C 49.77 59.09 51.89 57.5 51.89 55.92 Z" fill="none" stroke="#ffffff" stroke-width="2" stroke-miterlimit="10" pointer-events="all" style="stroke: light-dark(rgb(255, 255, 255), rgb(18, 18, 18));"/><path d="M 32.28 81.27 C 40.75 67.01 40.75 67.01 40.75 67.01 C 42.34 64.36 43.41 67.53 46.05 69.12 C 46.05 69.12 46.05 69.12 46.05 69.12 C 49.23 70.7 50.29 73.35 49.23 75.45 C 42.34 87.08 42.34 87.08 42.34 87.08 C 41.28 88.66 38.1 88.66 35.46 87.08 C 35.46 87.08 35.46 87.08 35.46 87.08 C 34.92 87.08 34.39 86.54 33.87 86.54" fill="none" stroke="#ffffff" stroke-width="2" stroke-miterlimit="10" pointer-events="all" style="stroke: light-dark(rgb(255, 255, 255), rgb(18, 18, 18));"/><path d="M 29.1 68.07 C 30.15 69.65 30.69 70.7 32.28 70.7 C 35.98 70.7 39.69 61.2 39.69 49.58 C 39.69 37.97 35.98 28.47 32.28 28.47 C 30.69 28.47 29.62 30.05 28.03 32.68" fill="none" stroke="#ffffff" stroke-width="2" stroke-miterlimit="10" pointer-events="all" style="stroke: light-dark(rgb(255, 255, 255), rgb(18, 18, 18));"/><path d="M 28.03 60.15 C 31.21 60.15 31.21 60.15 31.21 60.15 C 37.05 60.15 37.05 55.4 37.05 49.58 C 37.05 49.58 37.05 49.58 37.05 49.58 C 37.05 43.77 37.05 39.02 31.21 39.02 C 28.03 39.02 28.03 39.02 28.03 39.02" fill="none" stroke="#ffffff" stroke-width="2" stroke-miterlimit="10" pointer-events="all" style="stroke: light-dark(rgb(255, 255, 255), rgb(18, 18, 18));"/><path d="M 32.8 13.15 C 40.75 26.88 40.75 26.88 40.75 26.88 C 42.34 29.51 43.41 26.35 46.05 24.24 C 46.05 24.24 46.05 24.24 46.05 24.24 C 49.23 22.65 50.29 20.01 49.23 18.43 C 42.34 6.29 42.34 6.29 42.34 6.29 C 41.28 4.71 38.64 4.71 35.98 6.29" fill="none" stroke="#ffffff" stroke-width="2" stroke-miterlimit="10" pointer-events="all" style="stroke: light-dark(rgb(255, 255, 255), rgb(18, 18, 18));"/></g></g></g></g></g></svg>